G75*
G70*
%OFA0B0*%
%FSLAX24Y24*%
%IPPOS*%
%LPD*%
%AMOC8*
5,1,8,0,0,1.08239X$1,22.5*
%
%ADD10R,0.0315X0.0472*%
%ADD11C,0.0130*%
%ADD12R,0.0472X0.0315*%
%ADD13R,0.0748X0.1339*%
%ADD14R,0.0551X0.0138*%
%ADD15R,0.0748X0.0709*%
%ADD16R,0.0748X0.0748*%
%ADD17R,0.1181X0.0354*%
%ADD18R,0.1181X0.0531*%
%ADD19C,0.0118*%
%ADD20R,0.0315X0.0112*%
%ADD21R,0.0112X0.0315*%
%ADD22R,0.0512X0.0512*%
%ADD23R,0.0787X0.0472*%
%ADD24R,0.0512X0.0433*%
%ADD25R,0.0217X0.0472*%
D10*
X003355Y006000D03*
X003945Y006000D03*
D11*
X003820Y005251D02*
X003714Y005251D01*
X003820Y005251D02*
X003820Y005145D01*
X003714Y005145D01*
X003714Y005251D01*
X003386Y005251D02*
X003280Y005251D01*
X003386Y005251D02*
X003386Y005145D01*
X003280Y005145D01*
X003280Y005251D01*
X003280Y004911D02*
X003386Y004911D01*
X003386Y004805D01*
X003280Y004805D01*
X003280Y004911D01*
X003714Y004911D02*
X003820Y004911D01*
X003820Y004805D01*
X003714Y004805D01*
X003714Y004911D01*
X003714Y004503D02*
X003820Y004503D01*
X003820Y004397D01*
X003714Y004397D01*
X003714Y004503D01*
X003386Y004503D02*
X003280Y004503D01*
X003386Y004503D02*
X003386Y004397D01*
X003280Y004397D01*
X003280Y004503D01*
X002523Y003380D02*
X002523Y003274D01*
X002417Y003274D01*
X002417Y003380D01*
X002523Y003380D01*
X002523Y002946D02*
X002523Y002840D01*
X002417Y002840D01*
X002417Y002946D01*
X002523Y002946D01*
X002880Y002877D02*
X002986Y002877D01*
X002880Y002877D02*
X002880Y002983D01*
X002986Y002983D01*
X002986Y002877D01*
X003314Y002877D02*
X003420Y002877D01*
X003314Y002877D02*
X003314Y002983D01*
X003420Y002983D01*
X003420Y002877D01*
X003767Y002826D02*
X003767Y002720D01*
X003767Y002826D02*
X003873Y002826D01*
X003873Y002720D01*
X003767Y002720D01*
X003767Y003154D02*
X003767Y003260D01*
X003873Y003260D01*
X003873Y003154D01*
X003767Y003154D01*
X005495Y004357D02*
X005601Y004357D01*
X005495Y004357D02*
X005495Y004463D01*
X005601Y004463D01*
X005601Y004357D01*
X005929Y004357D02*
X006035Y004357D01*
X005929Y004357D02*
X005929Y004463D01*
X006035Y004463D01*
X006035Y004357D01*
X006497Y003730D02*
X006497Y003624D01*
X006497Y003730D02*
X006603Y003730D01*
X006603Y003624D01*
X006497Y003624D01*
X006497Y003296D02*
X006497Y003190D01*
X006497Y003296D02*
X006603Y003296D01*
X006603Y003190D01*
X006497Y003190D01*
X007170Y004403D02*
X007276Y004403D01*
X007276Y004297D01*
X007170Y004297D01*
X007170Y004403D01*
X007604Y004403D02*
X007710Y004403D01*
X007710Y004297D01*
X007604Y004297D01*
X007604Y004403D01*
X008447Y003895D02*
X008447Y003789D01*
X008447Y003895D02*
X008553Y003895D01*
X008553Y003789D01*
X008447Y003789D01*
X008447Y003461D02*
X008447Y003355D01*
X008447Y003461D02*
X008553Y003461D01*
X008553Y003355D01*
X008447Y003355D01*
X009980Y004297D02*
X010086Y004297D01*
X009980Y004297D02*
X009980Y004403D01*
X010086Y004403D01*
X010086Y004297D01*
X010414Y004297D02*
X010520Y004297D01*
X010414Y004297D02*
X010414Y004403D01*
X010520Y004403D01*
X010520Y004297D01*
X010511Y004677D02*
X010405Y004677D01*
X010405Y004783D01*
X010511Y004783D01*
X010511Y004677D01*
X010839Y004677D02*
X010945Y004677D01*
X010839Y004677D02*
X010839Y004783D01*
X010945Y004783D01*
X010945Y004677D01*
X010945Y005017D02*
X010839Y005017D01*
X010839Y005123D01*
X010945Y005123D01*
X010945Y005017D01*
X010511Y005017D02*
X010405Y005017D01*
X010405Y005123D01*
X010511Y005123D01*
X010511Y005017D01*
X010400Y005957D02*
X010294Y005957D01*
X010294Y006063D01*
X010400Y006063D01*
X010400Y005957D01*
X009966Y005957D02*
X009860Y005957D01*
X009860Y006063D01*
X009966Y006063D01*
X009966Y005957D01*
X009966Y006277D02*
X009860Y006277D01*
X009860Y006383D01*
X009966Y006383D01*
X009966Y006277D01*
X010294Y006277D02*
X010400Y006277D01*
X010294Y006277D02*
X010294Y006383D01*
X010400Y006383D01*
X010400Y006277D01*
X008500Y007298D02*
X008394Y007298D01*
X008500Y007298D02*
X008500Y007192D01*
X008394Y007192D01*
X008394Y007298D01*
X008066Y007298D02*
X007960Y007298D01*
X008066Y007298D02*
X008066Y007192D01*
X007960Y007192D01*
X007960Y007298D01*
X007303Y007255D02*
X007303Y007361D01*
X007303Y007255D02*
X007197Y007255D01*
X007197Y007361D01*
X007303Y007361D01*
X007303Y007689D02*
X007303Y007795D01*
X007303Y007689D02*
X007197Y007689D01*
X007197Y007795D01*
X007303Y007795D01*
X006042Y007170D02*
X006042Y007064D01*
X006042Y007170D02*
X006148Y007170D01*
X006148Y007064D01*
X006042Y007064D01*
X005492Y007064D02*
X005492Y007170D01*
X005598Y007170D01*
X005598Y007064D01*
X005492Y007064D01*
X005492Y006736D02*
X005492Y006630D01*
X005492Y006736D02*
X005598Y006736D01*
X005598Y006630D01*
X005492Y006630D01*
X006042Y006630D02*
X006042Y006736D01*
X006148Y006736D01*
X006148Y006630D01*
X006042Y006630D01*
X004567Y006870D02*
X004567Y006976D01*
X004673Y006976D01*
X004673Y006870D01*
X004567Y006870D01*
X004567Y007304D02*
X004567Y007410D01*
X004673Y007410D01*
X004673Y007304D01*
X004567Y007304D01*
X010250Y007907D02*
X010356Y007907D01*
X010250Y007907D02*
X010250Y008013D01*
X010356Y008013D01*
X010356Y007907D01*
X010684Y007907D02*
X010790Y007907D01*
X010684Y007907D02*
X010684Y008013D01*
X010790Y008013D01*
X010790Y007907D01*
D12*
X004040Y007345D03*
X004040Y006755D03*
D13*
X009532Y002400D03*
X011068Y002400D03*
D14*
X002763Y004388D03*
X002763Y004644D03*
X002763Y004900D03*
X002763Y005156D03*
X002763Y005412D03*
D15*
X001720Y006475D03*
X001720Y003325D03*
D16*
X001720Y004400D03*
X001720Y005400D03*
D17*
X011732Y005294D03*
X011732Y004506D03*
D18*
X011732Y003630D03*
X011732Y006170D03*
D19*
X006863Y007042D02*
X006587Y007042D01*
X006587Y007318D01*
X006863Y007318D01*
X006863Y007042D01*
X006863Y007159D02*
X006587Y007159D01*
X006587Y007276D02*
X006863Y007276D01*
X006863Y007732D02*
X006587Y007732D01*
X006587Y008008D01*
X006863Y008008D01*
X006863Y007732D01*
X006863Y007849D02*
X006587Y007849D01*
X006587Y007966D02*
X006863Y007966D01*
X006233Y006308D02*
X005957Y006308D01*
X006233Y006308D02*
X006233Y006032D01*
X005957Y006032D01*
X005957Y006308D01*
X005957Y006149D02*
X006233Y006149D01*
X006233Y006266D02*
X005957Y006266D01*
X005683Y006308D02*
X005407Y006308D01*
X005683Y006308D02*
X005683Y006032D01*
X005407Y006032D01*
X005407Y006308D01*
X005407Y006149D02*
X005683Y006149D01*
X005683Y006266D02*
X005407Y006266D01*
X005407Y005618D02*
X005683Y005618D01*
X005683Y005342D01*
X005407Y005342D01*
X005407Y005618D01*
X005407Y005459D02*
X005683Y005459D01*
X005683Y005576D02*
X005407Y005576D01*
X005957Y005618D02*
X006233Y005618D01*
X006233Y005342D01*
X005957Y005342D01*
X005957Y005618D01*
X005957Y005459D02*
X006233Y005459D01*
X006233Y005576D02*
X005957Y005576D01*
D20*
X007416Y005480D03*
X007416Y005677D03*
X007416Y005873D03*
X007416Y006070D03*
X007416Y006267D03*
X007416Y006464D03*
X007416Y005283D03*
X007416Y005086D03*
X009384Y005086D03*
X009384Y005283D03*
X009384Y005480D03*
X009384Y005677D03*
X009384Y005873D03*
X009384Y006070D03*
X009384Y006267D03*
X009384Y006464D03*
X006174Y003739D03*
X006174Y003542D03*
X006174Y003345D03*
X006174Y003148D03*
X006174Y002952D03*
X006174Y002755D03*
X006174Y002558D03*
X006174Y002361D03*
X004206Y002361D03*
X004206Y002558D03*
X004206Y002755D03*
X004206Y002952D03*
X004206Y003148D03*
X004206Y003345D03*
X004206Y003542D03*
X004206Y003739D03*
D21*
X004501Y004034D03*
X004698Y004034D03*
X004895Y004034D03*
X005092Y004034D03*
X005288Y004034D03*
X005485Y004034D03*
X005682Y004034D03*
X005879Y004034D03*
X007711Y004791D03*
X007908Y004791D03*
X008105Y004791D03*
X008302Y004791D03*
X008498Y004791D03*
X008695Y004791D03*
X008892Y004791D03*
X009089Y004791D03*
X009089Y006759D03*
X008892Y006759D03*
X008695Y006759D03*
X008498Y006759D03*
X008302Y006759D03*
X008105Y006759D03*
X007908Y006759D03*
X007711Y006759D03*
X005879Y002066D03*
X005682Y002066D03*
X005485Y002066D03*
X005288Y002066D03*
X005092Y002066D03*
X004895Y002066D03*
X004698Y002066D03*
X004501Y002066D03*
D22*
X004895Y002755D03*
X005485Y002755D03*
X005485Y003345D03*
X004895Y003345D03*
X008105Y005480D03*
X008695Y005480D03*
X008695Y006070D03*
X008105Y006070D03*
D23*
X001742Y001587D03*
X003198Y001587D03*
X003198Y002453D03*
X001742Y002453D03*
D24*
X008922Y007241D03*
X009828Y007241D03*
X009828Y007949D03*
X008922Y007949D03*
D25*
X003344Y007762D03*
X002596Y007762D03*
X002596Y006738D03*
X002970Y006738D03*
X003344Y006738D03*
M02*
