G75*
G70*
%OFA0B0*%
%FSLAX24Y24*%
%IPPOS*%
%LPD*%
%AMOC8*
5,1,8,0,0,1.08239X$1,22.5*
%
%ADD10R,0.0315X0.0472*%
%ADD11C,0.0130*%
%ADD12R,0.0472X0.0315*%
%ADD13R,0.0748X0.1339*%
%ADD14R,0.0551X0.0138*%
%ADD15R,0.0748X0.0709*%
%ADD16R,0.0748X0.0748*%
%ADD17C,0.1310*%
%ADD18R,0.1181X0.0354*%
%ADD19C,0.0440*%
%ADD20R,0.0440X0.0440*%
%ADD21C,0.0118*%
%ADD22R,0.0315X0.0112*%
%ADD23R,0.0112X0.0315*%
%ADD24R,0.1240X0.1240*%
%ADD25R,0.0787X0.0472*%
%ADD26R,0.0512X0.0433*%
%ADD27R,0.0217X0.0472*%
%ADD28C,0.0100*%
%ADD29C,0.0330*%
%ADD30C,0.0160*%
%ADD31C,0.0300*%
D10*
X003355Y006000D03*
X003945Y006000D03*
D11*
X003820Y005251D02*
X003714Y005251D01*
X003820Y005251D02*
X003820Y005145D01*
X003714Y005145D01*
X003714Y005251D01*
X003386Y005251D02*
X003280Y005251D01*
X003386Y005251D02*
X003386Y005145D01*
X003280Y005145D01*
X003280Y005251D01*
X003280Y004911D02*
X003386Y004911D01*
X003386Y004805D01*
X003280Y004805D01*
X003280Y004911D01*
X003714Y004911D02*
X003820Y004911D01*
X003820Y004805D01*
X003714Y004805D01*
X003714Y004911D01*
X003714Y004503D02*
X003820Y004503D01*
X003820Y004397D01*
X003714Y004397D01*
X003714Y004503D01*
X003386Y004503D02*
X003280Y004503D01*
X003386Y004503D02*
X003386Y004397D01*
X003280Y004397D01*
X003280Y004503D01*
X002523Y003380D02*
X002523Y003274D01*
X002417Y003274D01*
X002417Y003380D01*
X002523Y003380D01*
X002523Y002946D02*
X002523Y002840D01*
X002417Y002840D01*
X002417Y002946D01*
X002523Y002946D01*
X002880Y002877D02*
X002986Y002877D01*
X002880Y002877D02*
X002880Y002983D01*
X002986Y002983D01*
X002986Y002877D01*
X003314Y002877D02*
X003420Y002877D01*
X003314Y002877D02*
X003314Y002983D01*
X003420Y002983D01*
X003420Y002877D01*
X003767Y002826D02*
X003767Y002720D01*
X003767Y002826D02*
X003873Y002826D01*
X003873Y002720D01*
X003767Y002720D01*
X003767Y003154D02*
X003767Y003260D01*
X003873Y003260D01*
X003873Y003154D01*
X003767Y003154D01*
X005495Y004357D02*
X005601Y004357D01*
X005495Y004357D02*
X005495Y004463D01*
X005601Y004463D01*
X005601Y004357D01*
X005929Y004357D02*
X006035Y004357D01*
X005929Y004357D02*
X005929Y004463D01*
X006035Y004463D01*
X006035Y004357D01*
X006497Y003730D02*
X006497Y003624D01*
X006497Y003730D02*
X006603Y003730D01*
X006603Y003624D01*
X006497Y003624D01*
X006497Y003296D02*
X006497Y003190D01*
X006497Y003296D02*
X006603Y003296D01*
X006603Y003190D01*
X006497Y003190D01*
X007170Y004403D02*
X007276Y004403D01*
X007276Y004297D01*
X007170Y004297D01*
X007170Y004403D01*
X007604Y004403D02*
X007710Y004403D01*
X007710Y004297D01*
X007604Y004297D01*
X007604Y004403D01*
X008447Y003895D02*
X008447Y003789D01*
X008447Y003895D02*
X008553Y003895D01*
X008553Y003789D01*
X008447Y003789D01*
X008447Y003461D02*
X008447Y003355D01*
X008447Y003461D02*
X008553Y003461D01*
X008553Y003355D01*
X008447Y003355D01*
X009980Y004297D02*
X010086Y004297D01*
X009980Y004297D02*
X009980Y004403D01*
X010086Y004403D01*
X010086Y004297D01*
X010414Y004297D02*
X010520Y004297D01*
X010414Y004297D02*
X010414Y004403D01*
X010520Y004403D01*
X010520Y004297D01*
X010511Y004677D02*
X010405Y004677D01*
X010405Y004783D01*
X010511Y004783D01*
X010511Y004677D01*
X010839Y004677D02*
X010945Y004677D01*
X010839Y004677D02*
X010839Y004783D01*
X010945Y004783D01*
X010945Y004677D01*
X010945Y005017D02*
X010839Y005017D01*
X010839Y005123D01*
X010945Y005123D01*
X010945Y005017D01*
X010511Y005017D02*
X010405Y005017D01*
X010405Y005123D01*
X010511Y005123D01*
X010511Y005017D01*
X010400Y005957D02*
X010294Y005957D01*
X010294Y006063D01*
X010400Y006063D01*
X010400Y005957D01*
X009966Y005957D02*
X009860Y005957D01*
X009860Y006063D01*
X009966Y006063D01*
X009966Y005957D01*
X009966Y006277D02*
X009860Y006277D01*
X009860Y006383D01*
X009966Y006383D01*
X009966Y006277D01*
X010294Y006277D02*
X010400Y006277D01*
X010294Y006277D02*
X010294Y006383D01*
X010400Y006383D01*
X010400Y006277D01*
X008500Y007298D02*
X008394Y007298D01*
X008500Y007298D02*
X008500Y007192D01*
X008394Y007192D01*
X008394Y007298D01*
X008066Y007298D02*
X007960Y007298D01*
X008066Y007298D02*
X008066Y007192D01*
X007960Y007192D01*
X007960Y007298D01*
X007303Y007255D02*
X007303Y007361D01*
X007303Y007255D02*
X007197Y007255D01*
X007197Y007361D01*
X007303Y007361D01*
X007303Y007689D02*
X007303Y007795D01*
X007303Y007689D02*
X007197Y007689D01*
X007197Y007795D01*
X007303Y007795D01*
X006042Y007170D02*
X006042Y007064D01*
X006042Y007170D02*
X006148Y007170D01*
X006148Y007064D01*
X006042Y007064D01*
X005492Y007064D02*
X005492Y007170D01*
X005598Y007170D01*
X005598Y007064D01*
X005492Y007064D01*
X005492Y006736D02*
X005492Y006630D01*
X005492Y006736D02*
X005598Y006736D01*
X005598Y006630D01*
X005492Y006630D01*
X006042Y006630D02*
X006042Y006736D01*
X006148Y006736D01*
X006148Y006630D01*
X006042Y006630D01*
X004567Y006870D02*
X004567Y006976D01*
X004673Y006976D01*
X004673Y006870D01*
X004567Y006870D01*
X004567Y007304D02*
X004567Y007410D01*
X004673Y007410D01*
X004673Y007304D01*
X004567Y007304D01*
X010250Y007907D02*
X010356Y007907D01*
X010250Y007907D02*
X010250Y008013D01*
X010356Y008013D01*
X010356Y007907D01*
X010684Y007907D02*
X010790Y007907D01*
X010684Y007907D02*
X010684Y008013D01*
X010790Y008013D01*
X010790Y007907D01*
D12*
X004040Y007345D03*
X004040Y006755D03*
D13*
X009532Y002650D03*
X011068Y002650D03*
D14*
X002763Y004388D03*
X002763Y004644D03*
X002763Y004900D03*
X002763Y005156D03*
X002763Y005412D03*
D15*
X001720Y006475D03*
X001720Y003325D03*
D16*
X001720Y004400D03*
X001720Y005400D03*
D17*
X013090Y007485D03*
X013090Y002315D03*
D18*
X011732Y003719D03*
X011732Y004506D03*
X011732Y005294D03*
X011732Y006081D03*
D19*
X008150Y002520D03*
X007650Y002520D03*
X007650Y002020D03*
X008150Y002020D03*
X008650Y002020D03*
D20*
X008650Y002520D03*
D21*
X006233Y005618D02*
X005957Y005618D01*
X006233Y005618D02*
X006233Y005342D01*
X005957Y005342D01*
X005957Y005618D01*
X005957Y005459D02*
X006233Y005459D01*
X006233Y005576D02*
X005957Y005576D01*
X005683Y005618D02*
X005407Y005618D01*
X005683Y005618D02*
X005683Y005342D01*
X005407Y005342D01*
X005407Y005618D01*
X005407Y005459D02*
X005683Y005459D01*
X005683Y005576D02*
X005407Y005576D01*
X005407Y006308D02*
X005683Y006308D01*
X005683Y006032D01*
X005407Y006032D01*
X005407Y006308D01*
X005407Y006149D02*
X005683Y006149D01*
X005683Y006266D02*
X005407Y006266D01*
X005957Y006308D02*
X006233Y006308D01*
X006233Y006032D01*
X005957Y006032D01*
X005957Y006308D01*
X005957Y006149D02*
X006233Y006149D01*
X006233Y006266D02*
X005957Y006266D01*
X006587Y007042D02*
X006863Y007042D01*
X006587Y007042D02*
X006587Y007318D01*
X006863Y007318D01*
X006863Y007042D01*
X006863Y007159D02*
X006587Y007159D01*
X006587Y007276D02*
X006863Y007276D01*
X006863Y007732D02*
X006587Y007732D01*
X006587Y008008D01*
X006863Y008008D01*
X006863Y007732D01*
X006863Y007849D02*
X006587Y007849D01*
X006587Y007966D02*
X006863Y007966D01*
D22*
X007416Y006464D03*
X007416Y006267D03*
X007416Y006070D03*
X007416Y005873D03*
X007416Y005677D03*
X007416Y005480D03*
X007416Y005283D03*
X007416Y005086D03*
X009384Y005086D03*
X009384Y005283D03*
X009384Y005480D03*
X009384Y005677D03*
X009384Y005873D03*
X009384Y006070D03*
X009384Y006267D03*
X009384Y006464D03*
X006174Y003739D03*
X006174Y003542D03*
X006174Y003345D03*
X006174Y003148D03*
X006174Y002952D03*
X006174Y002755D03*
X006174Y002558D03*
X006174Y002361D03*
X004206Y002361D03*
X004206Y002558D03*
X004206Y002755D03*
X004206Y002952D03*
X004206Y003148D03*
X004206Y003345D03*
X004206Y003542D03*
X004206Y003739D03*
D23*
X004501Y004034D03*
X004698Y004034D03*
X004895Y004034D03*
X005092Y004034D03*
X005288Y004034D03*
X005485Y004034D03*
X005682Y004034D03*
X005879Y004034D03*
X007711Y004791D03*
X007908Y004791D03*
X008105Y004791D03*
X008302Y004791D03*
X008498Y004791D03*
X008695Y004791D03*
X008892Y004791D03*
X009089Y004791D03*
X009089Y006759D03*
X008892Y006759D03*
X008695Y006759D03*
X008498Y006759D03*
X008302Y006759D03*
X008105Y006759D03*
X007908Y006759D03*
X007711Y006759D03*
X005879Y002066D03*
X005682Y002066D03*
X005485Y002066D03*
X005288Y002066D03*
X005092Y002066D03*
X004895Y002066D03*
X004698Y002066D03*
X004501Y002066D03*
D24*
X005190Y003050D03*
X008400Y005775D03*
D25*
X003198Y002453D03*
X001742Y002453D03*
X001742Y001587D03*
X003198Y001587D03*
D26*
X008922Y007241D03*
X009828Y007241D03*
X009828Y007949D03*
X008922Y007949D03*
D27*
X003344Y007762D03*
X002596Y007762D03*
X002596Y006738D03*
X002970Y006738D03*
X003344Y006738D03*
D28*
X002245Y001709D02*
X002245Y001350D01*
X002655Y001350D01*
X002655Y001537D01*
X003148Y001537D01*
X003148Y001637D01*
X002655Y001637D01*
X002655Y001843D01*
X002665Y001881D01*
X002685Y001915D01*
X002713Y001943D01*
X002747Y001963D01*
X002785Y001973D01*
X003148Y001973D01*
X003148Y001637D01*
X003248Y001637D01*
X003248Y001973D01*
X003612Y001973D01*
X003650Y001963D01*
X003684Y001943D01*
X003712Y001915D01*
X003732Y001881D01*
X003742Y001843D01*
X003742Y001637D01*
X003248Y001637D01*
X003248Y001537D01*
X003742Y001537D01*
X003742Y001350D01*
X013700Y001350D01*
X013700Y001788D01*
X013697Y001783D01*
X013622Y001708D01*
X013538Y001644D01*
X013447Y001591D01*
X013349Y001551D01*
X013247Y001524D01*
X013143Y001510D01*
X013140Y001510D01*
X013140Y002265D01*
X013040Y002265D01*
X013040Y001510D01*
X013037Y001510D01*
X012933Y001524D01*
X012831Y001551D01*
X012733Y001591D01*
X012642Y001644D01*
X012558Y001708D01*
X012483Y001783D01*
X012419Y001867D01*
X012366Y001958D01*
X012326Y002056D01*
X012299Y002158D01*
X012285Y002262D01*
X012285Y002265D01*
X013040Y002265D01*
X013040Y002365D01*
X013040Y003120D01*
X013037Y003120D01*
X012933Y003106D01*
X012831Y003079D01*
X012733Y003039D01*
X012642Y002986D01*
X012558Y002922D01*
X012483Y002847D01*
X012419Y002763D01*
X012366Y002672D01*
X012326Y002574D01*
X012299Y002472D01*
X012285Y002368D01*
X012285Y002365D01*
X013040Y002365D01*
X013140Y002365D01*
X013140Y003120D01*
X013143Y003120D01*
X013247Y003106D01*
X013349Y003079D01*
X013447Y003039D01*
X013538Y002986D01*
X013622Y002922D01*
X013697Y002847D01*
X013700Y002842D01*
X013700Y006958D01*
X013697Y006953D01*
X013622Y006878D01*
X013538Y006814D01*
X013447Y006761D01*
X013349Y006721D01*
X013247Y006694D01*
X013143Y006680D01*
X013140Y006680D01*
X013140Y007435D01*
X013040Y007435D01*
X013040Y006680D01*
X013037Y006680D01*
X012933Y006694D01*
X012831Y006721D01*
X012733Y006761D01*
X012642Y006814D01*
X012558Y006878D01*
X012483Y006953D01*
X012419Y007037D01*
X012366Y007128D01*
X012326Y007226D01*
X012299Y007328D01*
X012285Y007432D01*
X012285Y007435D01*
X013040Y007435D01*
X013040Y007535D01*
X013040Y008290D01*
X013037Y008290D01*
X012933Y008276D01*
X012831Y008249D01*
X012733Y008209D01*
X012642Y008156D01*
X012558Y008092D01*
X012483Y008017D01*
X012419Y007933D01*
X012366Y007842D01*
X012326Y007744D01*
X012299Y007642D01*
X012285Y007538D01*
X012285Y007535D01*
X013040Y007535D01*
X013140Y007535D01*
X013140Y008290D01*
X013143Y008290D01*
X013247Y008276D01*
X013349Y008249D01*
X013447Y008209D01*
X013538Y008156D01*
X013622Y008092D01*
X013697Y008017D01*
X013700Y008012D01*
X013700Y008450D01*
X001350Y008450D01*
X001350Y006979D01*
X001670Y006979D01*
X001670Y006525D01*
X001770Y006525D01*
X001770Y006979D01*
X002114Y006979D01*
X002152Y006969D01*
X002186Y006949D01*
X002214Y006921D01*
X002234Y006887D01*
X002244Y006849D01*
X002244Y006525D01*
X001770Y006525D01*
X001770Y006425D01*
X002244Y006425D01*
X002244Y006101D01*
X002234Y006063D01*
X002214Y006028D01*
X002186Y006000D01*
X002152Y005981D01*
X002114Y005970D01*
X001770Y005970D01*
X001770Y006425D01*
X001670Y006425D01*
X001670Y005970D01*
X001350Y005970D01*
X001350Y005924D01*
X001670Y005924D01*
X001670Y005450D01*
X001770Y005450D01*
X001770Y005924D01*
X002114Y005924D01*
X002152Y005914D01*
X002186Y005894D01*
X002214Y005866D01*
X002234Y005832D01*
X002244Y005794D01*
X002244Y005450D01*
X001770Y005450D01*
X001770Y005350D01*
X002244Y005350D01*
X002244Y005006D01*
X002234Y004968D01*
X002214Y004934D01*
X002186Y004906D01*
X002176Y004900D01*
X002186Y004894D01*
X002214Y004866D01*
X002234Y004832D01*
X002244Y004794D01*
X002244Y004450D01*
X001770Y004450D01*
X001770Y004350D01*
X002244Y004350D01*
X002244Y004006D01*
X002234Y003968D01*
X002214Y003934D01*
X002186Y003906D01*
X002152Y003886D01*
X002114Y003876D01*
X001770Y003876D01*
X001770Y004350D01*
X001670Y004350D01*
X001670Y003876D01*
X001350Y003876D01*
X001350Y003830D01*
X001670Y003830D01*
X001670Y003375D01*
X001770Y003375D01*
X002202Y003375D01*
X002202Y003336D01*
X002461Y003336D01*
X002461Y003595D01*
X002389Y003595D01*
X002334Y003580D01*
X002285Y003552D01*
X002245Y003512D01*
X002244Y003510D01*
X002244Y003699D01*
X002234Y003737D01*
X002214Y003772D01*
X002186Y003800D01*
X002152Y003819D01*
X002114Y003830D01*
X001770Y003830D01*
X001770Y003375D01*
X001770Y003275D01*
X001770Y002821D01*
X001792Y002821D01*
X001792Y002503D01*
X002285Y002503D01*
X002285Y002709D01*
X002280Y002730D01*
X002310Y002700D01*
X002310Y002226D01*
X002285Y002202D01*
X002285Y002403D01*
X001792Y002403D01*
X001792Y002503D01*
X001692Y002503D01*
X001692Y002839D01*
X001670Y002839D01*
X001670Y003275D01*
X001770Y003275D01*
X002202Y003275D01*
X002202Y003317D01*
X001770Y003317D01*
X001770Y003219D02*
X001670Y003219D01*
X001670Y003120D02*
X001770Y003120D01*
X001770Y003022D02*
X001670Y003022D01*
X001670Y002923D02*
X001770Y002923D01*
X001770Y002825D02*
X001692Y002825D01*
X001692Y002726D02*
X001792Y002726D01*
X001792Y002628D02*
X001692Y002628D01*
X001692Y002529D02*
X001792Y002529D01*
X001792Y002431D02*
X002310Y002431D01*
X002310Y002529D02*
X002285Y002529D01*
X002285Y002628D02*
X002310Y002628D01*
X002284Y002726D02*
X002281Y002726D01*
X002470Y002893D02*
X002800Y003223D01*
X002800Y003470D01*
X003180Y003850D01*
X003650Y003850D01*
X003761Y003739D01*
X004206Y003739D01*
X004206Y003542D02*
X003688Y003542D01*
X003580Y003650D01*
X003268Y003650D01*
X002996Y003378D01*
X002996Y002998D01*
X002933Y002930D01*
X003000Y002930D01*
X003000Y002580D01*
X003198Y002580D01*
X003198Y002453D01*
X002695Y002431D02*
X002630Y002431D01*
X002630Y002529D02*
X002695Y002529D01*
X002695Y002628D02*
X002630Y002628D01*
X002630Y002700D02*
X002698Y002768D01*
X002698Y002895D01*
X002705Y002903D01*
X002705Y002804D01*
X002735Y002775D01*
X002695Y002735D01*
X002695Y002171D01*
X002759Y002107D01*
X003638Y002107D01*
X003702Y002171D01*
X003702Y002515D01*
X003739Y002505D01*
X003811Y002505D01*
X003811Y002764D01*
X003829Y002764D01*
X003829Y002505D01*
X003901Y002505D01*
X003938Y002515D01*
X003938Y002259D01*
X004003Y002195D01*
X004046Y002195D01*
X004046Y001908D01*
X003974Y001878D01*
X003897Y001801D01*
X003855Y001700D01*
X003855Y001590D01*
X003897Y001489D01*
X003974Y001412D01*
X004075Y001370D01*
X004185Y001370D01*
X004286Y001412D01*
X004350Y001476D01*
X004409Y001417D01*
X004510Y001375D01*
X004620Y001375D01*
X004721Y001417D01*
X004790Y001486D01*
X004859Y001417D01*
X004960Y001375D01*
X005070Y001375D01*
X005171Y001417D01*
X005228Y001474D01*
X005284Y001417D01*
X005385Y001375D01*
X005495Y001375D01*
X005596Y001417D01*
X005652Y001474D01*
X005709Y001417D01*
X005810Y001375D01*
X005920Y001375D01*
X006021Y001417D01*
X006098Y001494D01*
X006101Y001500D01*
X006159Y001442D01*
X006260Y001400D01*
X006364Y001400D01*
X006395Y001369D01*
X007009Y001369D01*
X007103Y001462D01*
X007103Y001462D01*
X007186Y001545D01*
X007280Y001639D01*
X007280Y002056D01*
X007280Y002020D01*
X007650Y002020D01*
X007650Y001650D01*
X007686Y001650D01*
X007758Y001664D01*
X007825Y001692D01*
X007886Y001733D01*
X007928Y001775D01*
X007963Y001740D01*
X008084Y001690D01*
X008216Y001690D01*
X008337Y001740D01*
X008400Y001803D01*
X008463Y001740D01*
X008584Y001690D01*
X008716Y001690D01*
X008837Y001740D01*
X008930Y001833D01*
X008980Y001954D01*
X008980Y002086D01*
X008931Y002205D01*
X008980Y002254D01*
X008980Y002624D01*
X008985Y002629D01*
X008985Y003850D01*
X009080Y003850D01*
X009181Y003892D01*
X009258Y003969D01*
X009300Y004070D01*
X009300Y004175D01*
X009330Y004175D01*
X009431Y004217D01*
X009508Y004294D01*
X009550Y004395D01*
X009550Y004500D01*
X009630Y004500D01*
X009731Y004542D01*
X009808Y004619D01*
X009810Y004624D01*
X009810Y004480D01*
X009805Y004476D01*
X009805Y004283D01*
X009804Y004270D01*
X009805Y004269D01*
X009805Y004224D01*
X009810Y004220D01*
X009810Y004079D01*
X009865Y004024D01*
X009865Y003920D01*
X009907Y003819D01*
X009984Y003742D01*
X010085Y003700D01*
X010195Y003700D01*
X010296Y003742D01*
X010373Y003819D01*
X010415Y003920D01*
X010415Y004030D01*
X010377Y004122D01*
X010592Y004122D01*
X010641Y004170D01*
X010694Y004117D01*
X010795Y004075D01*
X010905Y004075D01*
X011006Y004117D01*
X011083Y004194D01*
X011094Y004221D01*
X011096Y004219D01*
X012368Y004219D01*
X012432Y004284D01*
X012432Y004729D01*
X012368Y004793D01*
X011153Y004793D01*
X011120Y004827D01*
X011120Y004856D01*
X011075Y004900D01*
X011120Y004944D01*
X011120Y004973D01*
X011153Y005007D01*
X012368Y005007D01*
X012432Y005071D01*
X012432Y005516D01*
X012368Y005581D01*
X011096Y005581D01*
X011031Y005516D01*
X011031Y005330D01*
X011024Y005330D01*
X010992Y005298D01*
X010766Y005298D01*
X010675Y005207D01*
X010584Y005298D01*
X010468Y005298D01*
X009984Y005782D01*
X010039Y005782D01*
X010107Y005850D01*
X010121Y005825D01*
X010161Y005785D01*
X010210Y005757D01*
X010265Y005742D01*
X010337Y005742D01*
X010337Y006001D01*
X010356Y006001D01*
X010356Y006019D01*
X010615Y006019D01*
X010615Y006091D01*
X010600Y006146D01*
X010586Y006170D01*
X010600Y006194D01*
X010615Y006249D01*
X010615Y006321D01*
X010356Y006321D01*
X010356Y006339D01*
X010615Y006339D01*
X010615Y006411D01*
X010600Y006466D01*
X010572Y006515D01*
X010532Y006555D01*
X010483Y006583D01*
X010428Y006598D01*
X010356Y006598D01*
X010356Y006339D01*
X010337Y006339D01*
X010337Y006598D01*
X010265Y006598D01*
X010210Y006583D01*
X010161Y006555D01*
X010121Y006515D01*
X010107Y006490D01*
X010073Y006524D01*
X010073Y006618D01*
X010030Y006661D01*
X010030Y006765D01*
X009988Y006866D01*
X009980Y006874D01*
X010103Y006874D01*
X010142Y006884D01*
X010176Y006904D01*
X010204Y006932D01*
X010223Y006966D01*
X010234Y007004D01*
X010234Y007191D01*
X009878Y007191D01*
X009878Y007291D01*
X009778Y007291D01*
X009778Y007607D01*
X009663Y007607D01*
X009679Y007623D01*
X010129Y007623D01*
X010194Y007687D01*
X010194Y007732D01*
X010429Y007732D01*
X010497Y007800D01*
X010511Y007775D01*
X010551Y007735D01*
X010600Y007707D01*
X010655Y007692D01*
X010727Y007692D01*
X010727Y007951D01*
X010746Y007951D01*
X010746Y007969D01*
X011005Y007969D01*
X011005Y008041D01*
X010990Y008096D01*
X010962Y008145D01*
X010922Y008185D01*
X010873Y008213D01*
X010818Y008228D01*
X010746Y008228D01*
X010746Y007969D01*
X010727Y007969D01*
X010727Y008228D01*
X010655Y008228D01*
X010600Y008213D01*
X010551Y008185D01*
X010511Y008145D01*
X010497Y008120D01*
X010429Y008188D01*
X010194Y008188D01*
X010194Y008211D01*
X010129Y008276D01*
X009526Y008276D01*
X009462Y008211D01*
X009462Y007858D01*
X009328Y007724D01*
X009328Y007899D01*
X008972Y007899D01*
X008972Y007583D01*
X009198Y007583D01*
X009224Y007590D01*
X009224Y007567D01*
X008621Y007567D01*
X008556Y007503D01*
X008556Y007473D01*
X008321Y007473D01*
X008253Y007405D01*
X008239Y007430D01*
X008199Y007470D01*
X008150Y007498D01*
X008095Y007513D01*
X008023Y007513D01*
X008023Y007254D01*
X008004Y007254D01*
X008004Y007236D01*
X007745Y007236D01*
X007745Y007164D01*
X007760Y007109D01*
X007788Y007060D01*
X007032Y007060D01*
X007032Y007109D02*
X007096Y007109D01*
X007124Y007080D01*
X007376Y007080D01*
X007478Y007183D01*
X007478Y007434D01*
X007387Y007525D01*
X007478Y007616D01*
X007478Y007867D01*
X007451Y007894D01*
X007506Y007917D01*
X007583Y007994D01*
X007625Y008095D01*
X007625Y008205D01*
X007583Y008306D01*
X007506Y008383D01*
X007405Y008425D01*
X007295Y008425D01*
X007194Y008383D01*
X007117Y008306D01*
X007075Y008205D01*
X007075Y008095D01*
X007090Y008059D01*
X007090Y007935D01*
X007022Y007867D01*
X007022Y007822D01*
X006773Y007822D01*
X006773Y007523D01*
X006890Y007523D01*
X006943Y007538D01*
X006991Y007565D01*
X007030Y007604D01*
X007031Y007606D01*
X007113Y007525D01*
X007022Y007434D01*
X007022Y007429D01*
X006990Y007429D01*
X006933Y007487D01*
X006517Y007487D01*
X006418Y007388D01*
X006418Y006972D01*
X006517Y006873D01*
X006933Y006873D01*
X007032Y006972D01*
X007032Y007109D01*
X007021Y006962D02*
X007545Y006962D01*
X007545Y006630D01*
X007213Y006630D01*
X007200Y006618D01*
X007168Y006696D01*
X007091Y006773D01*
X006990Y006815D01*
X006880Y006815D01*
X006779Y006773D01*
X006702Y006696D01*
X006660Y006595D01*
X006660Y006485D01*
X006702Y006384D01*
X006779Y006307D01*
X006880Y006265D01*
X006984Y006265D01*
X007108Y006140D01*
X007108Y006070D01*
X007108Y005995D01*
X007118Y005956D01*
X007138Y005922D01*
X007148Y005912D01*
X007148Y004984D01*
X007213Y004920D01*
X007545Y004920D01*
X007545Y004588D01*
X007555Y004578D01*
X007531Y004578D01*
X007440Y004487D01*
X007349Y004578D01*
X007124Y004578D01*
X007088Y004666D01*
X007011Y004743D01*
X006910Y004785D01*
X006800Y004785D01*
X006699Y004743D01*
X006622Y004666D01*
X006580Y004565D01*
X006580Y004455D01*
X006622Y004354D01*
X006699Y004277D01*
X006800Y004235D01*
X006904Y004235D01*
X006949Y004190D01*
X007030Y004190D01*
X007098Y004122D01*
X007349Y004122D01*
X007440Y004213D01*
X007531Y004122D01*
X007782Y004122D01*
X007852Y004192D01*
X007845Y004175D01*
X007845Y004065D01*
X007887Y003964D01*
X007960Y003891D01*
X007960Y002797D01*
X007900Y002737D01*
X007837Y002800D01*
X007810Y002811D01*
X007810Y003035D01*
X007811Y003035D01*
X007810Y003101D01*
X007810Y003166D01*
X007809Y003167D01*
X007809Y003168D01*
X007763Y003214D01*
X007716Y003260D01*
X007715Y003260D01*
X007176Y003790D01*
X007066Y003900D01*
X006680Y003900D01*
X006676Y003905D01*
X006523Y003905D01*
X006501Y003911D01*
X006488Y003905D01*
X006424Y003905D01*
X006419Y003899D01*
X006383Y003899D01*
X006377Y003905D01*
X006045Y003905D01*
X006045Y004142D01*
X006063Y004142D01*
X006118Y004157D01*
X006167Y004185D01*
X006207Y004225D01*
X006235Y004274D01*
X006250Y004329D01*
X006250Y004401D01*
X005991Y004401D01*
X005991Y004419D01*
X006250Y004419D01*
X006250Y004491D01*
X006235Y004546D01*
X006207Y004595D01*
X006167Y004635D01*
X006118Y004663D01*
X006063Y004678D01*
X005991Y004678D01*
X005991Y004419D01*
X005972Y004419D01*
X005972Y004678D01*
X005900Y004678D01*
X005845Y004663D01*
X005796Y004635D01*
X005756Y004595D01*
X005742Y004570D01*
X005674Y004638D01*
X005423Y004638D01*
X005320Y004536D01*
X005320Y004342D01*
X005288Y004342D01*
X005252Y004342D01*
X005252Y004795D01*
X005158Y004888D01*
X005025Y005021D01*
X005048Y005044D01*
X005090Y005145D01*
X005090Y005255D01*
X005048Y005356D01*
X004971Y005433D01*
X004870Y005475D01*
X004760Y005475D01*
X004659Y005433D01*
X004582Y005356D01*
X004540Y005255D01*
X004540Y005229D01*
X004359Y005410D01*
X003908Y005410D01*
X003892Y005426D01*
X003641Y005426D01*
X003550Y005335D01*
X003459Y005426D01*
X003208Y005426D01*
X003149Y005367D01*
X003149Y005526D01*
X003088Y005587D01*
X003155Y005654D01*
X003558Y005654D01*
X003622Y005718D01*
X003622Y006282D01*
X003558Y006346D01*
X003534Y006346D01*
X003534Y006428D01*
X003562Y006456D01*
X003562Y007020D01*
X003534Y007048D01*
X003534Y007155D01*
X003499Y007190D01*
X003694Y007190D01*
X003694Y007142D01*
X003758Y007078D01*
X004322Y007078D01*
X004386Y007142D01*
X004386Y007166D01*
X004457Y007166D01*
X004460Y007163D01*
X004435Y007149D01*
X004395Y007109D01*
X004367Y007060D01*
X004304Y007060D01*
X004296Y007062D02*
X004069Y007062D01*
X004069Y006783D01*
X004011Y006783D01*
X004011Y006726D01*
X003654Y006726D01*
X003654Y006577D01*
X003664Y006539D01*
X003684Y006505D01*
X003712Y006477D01*
X003746Y006457D01*
X003784Y006447D01*
X004011Y006447D01*
X004011Y006726D01*
X004069Y006726D01*
X004069Y006447D01*
X004296Y006447D01*
X004334Y006457D01*
X004368Y006477D01*
X004396Y006505D01*
X004416Y006539D01*
X004426Y006577D01*
X004426Y006707D01*
X004435Y006698D01*
X004484Y006670D01*
X004539Y006655D01*
X004611Y006655D01*
X004611Y006914D01*
X004629Y006914D01*
X004629Y006655D01*
X004701Y006655D01*
X004756Y006670D01*
X004805Y006698D01*
X004845Y006738D01*
X004873Y006787D01*
X004888Y006842D01*
X004888Y006914D01*
X004629Y006914D01*
X004629Y006933D01*
X004888Y006933D01*
X004888Y007005D01*
X004873Y007060D01*
X005317Y007060D01*
X005317Y006991D02*
X005408Y006900D01*
X005317Y006809D01*
X005317Y006558D01*
X005385Y006490D01*
X005385Y006477D01*
X005337Y006477D01*
X005238Y006378D01*
X005238Y005962D01*
X005337Y005863D01*
X005753Y005863D01*
X005820Y005931D01*
X005887Y005863D01*
X006303Y005863D01*
X006402Y005962D01*
X006402Y006378D01*
X006303Y006477D01*
X006255Y006477D01*
X006255Y006490D01*
X006323Y006558D01*
X006323Y006809D01*
X006232Y006900D01*
X006323Y006991D01*
X006323Y007242D01*
X006255Y007310D01*
X006255Y007331D01*
X006283Y007359D01*
X006325Y007460D01*
X006325Y007570D01*
X006283Y007671D01*
X006206Y007748D01*
X006105Y007790D01*
X005995Y007790D01*
X005894Y007748D01*
X005817Y007671D01*
X005775Y007570D01*
X005775Y007460D01*
X005817Y007359D01*
X005894Y007282D01*
X005903Y007278D01*
X005867Y007242D01*
X005867Y006991D01*
X005958Y006900D01*
X005867Y006809D01*
X005867Y006558D01*
X005935Y006490D01*
X005935Y006477D01*
X005887Y006477D01*
X005820Y006410D01*
X005753Y006477D01*
X005705Y006477D01*
X005705Y006490D01*
X005773Y006558D01*
X005773Y006809D01*
X005682Y006900D01*
X005773Y006991D01*
X005773Y007242D01*
X005705Y007310D01*
X005705Y007356D01*
X005708Y007359D01*
X005750Y007460D01*
X005750Y007570D01*
X005708Y007671D01*
X005631Y007748D01*
X005530Y007790D01*
X005420Y007790D01*
X005319Y007748D01*
X005242Y007671D01*
X005200Y007570D01*
X005200Y007460D01*
X005242Y007359D01*
X005319Y007282D01*
X005346Y007271D01*
X005317Y007242D01*
X005317Y006991D01*
X005346Y006962D02*
X004888Y006962D01*
X004873Y007060D02*
X004845Y007109D01*
X004805Y007149D01*
X004780Y007163D01*
X004848Y007231D01*
X004848Y007482D01*
X004810Y007520D01*
X004810Y007551D01*
X004853Y007594D01*
X004895Y007695D01*
X004895Y007805D01*
X004853Y007906D01*
X004776Y007983D01*
X004675Y008025D01*
X004614Y008025D01*
X004599Y008040D01*
X004419Y008040D01*
X004376Y008083D01*
X004275Y008125D01*
X004165Y008125D01*
X004064Y008083D01*
X003987Y008006D01*
X003945Y007905D01*
X003945Y007795D01*
X003987Y007694D01*
X004064Y007617D01*
X004074Y007613D01*
X003758Y007613D01*
X003715Y007570D01*
X003562Y007570D01*
X003562Y008044D01*
X003498Y008108D01*
X003190Y008108D01*
X003126Y008044D01*
X003126Y007570D01*
X002814Y007570D01*
X002814Y008044D01*
X002750Y008108D01*
X002442Y008108D01*
X002378Y008044D01*
X002378Y007480D01*
X002406Y007452D01*
X002406Y007395D01*
X002500Y007301D01*
X002526Y007275D01*
X002517Y007266D01*
X002406Y007155D01*
X002406Y007048D01*
X002378Y007020D01*
X002378Y006456D01*
X002442Y006392D01*
X002750Y006392D01*
X002755Y006397D01*
X002770Y006382D01*
X002804Y006362D01*
X002842Y006352D01*
X002966Y006352D01*
X002966Y006734D01*
X002974Y006734D01*
X002974Y006352D01*
X003098Y006352D01*
X003136Y006362D01*
X003154Y006372D01*
X003154Y006346D01*
X003152Y006346D01*
X003115Y006310D01*
X002784Y006310D01*
X002584Y006110D01*
X002490Y006016D01*
X002490Y005591D01*
X002442Y005591D01*
X002378Y005526D01*
X002378Y005297D01*
X002391Y005284D01*
X002378Y005270D01*
X002378Y005041D01*
X002391Y005028D01*
X002378Y005014D01*
X002378Y004786D01*
X002391Y004772D01*
X002378Y004759D01*
X002378Y004559D01*
X002368Y004549D01*
X002348Y004515D01*
X002338Y004477D01*
X002338Y004388D01*
X002338Y004300D01*
X002348Y004261D01*
X002368Y004227D01*
X002396Y004199D01*
X002430Y004180D01*
X002468Y004169D01*
X002763Y004169D01*
X002763Y004388D01*
X002338Y004388D01*
X002763Y004388D01*
X002763Y004388D01*
X002763Y004388D01*
X002763Y004169D01*
X003059Y004169D01*
X003097Y004180D01*
X003131Y004199D01*
X003154Y004222D01*
X003197Y004197D01*
X003252Y004182D01*
X003324Y004182D01*
X003324Y004441D01*
X003343Y004441D01*
X003343Y004182D01*
X003415Y004182D01*
X003470Y004197D01*
X003519Y004225D01*
X003559Y004265D01*
X003573Y004290D01*
X003607Y004256D01*
X003607Y004128D01*
X003605Y004125D01*
X003605Y004015D01*
X003607Y004010D01*
X003114Y004010D01*
X002655Y003552D01*
X002606Y003580D01*
X002551Y003595D01*
X002479Y003595D01*
X002479Y003336D01*
X002461Y003336D01*
X002461Y003317D01*
X002202Y003317D01*
X002244Y003514D02*
X002247Y003514D01*
X002244Y003613D02*
X002716Y003613D01*
X002655Y003552D02*
X002655Y003552D01*
X002479Y003514D02*
X002461Y003514D01*
X002461Y003416D02*
X002479Y003416D01*
X002241Y003711D02*
X002815Y003711D01*
X002913Y003810D02*
X002169Y003810D01*
X002188Y003908D02*
X003012Y003908D01*
X003110Y004007D02*
X002244Y004007D01*
X002244Y004105D02*
X003605Y004105D01*
X003607Y004204D02*
X003482Y004204D01*
X003343Y004204D02*
X003324Y004204D01*
X003324Y004302D02*
X003343Y004302D01*
X003333Y004388D02*
X003333Y004450D01*
X003324Y004401D02*
X003343Y004401D01*
X003333Y004388D02*
X002763Y004388D01*
X002763Y004302D02*
X002763Y004302D01*
X002763Y004204D02*
X002763Y004204D01*
X003135Y004204D02*
X003185Y004204D01*
X003767Y004183D02*
X003767Y004450D01*
X003970Y004450D01*
X004386Y004034D01*
X004501Y004034D01*
X004698Y004034D02*
X004698Y004312D01*
X004540Y004470D01*
X004895Y004648D02*
X004895Y004034D01*
X005092Y004034D02*
X005092Y004728D01*
X004840Y004980D01*
X004840Y005175D01*
X004815Y005200D01*
X004612Y005386D02*
X004384Y005386D01*
X004482Y005287D02*
X004553Y005287D01*
X004293Y005250D02*
X004895Y004648D01*
X005153Y004893D02*
X005332Y004893D01*
X005342Y004869D02*
X005419Y004792D01*
X005520Y004750D01*
X005630Y004750D01*
X005731Y004792D01*
X005808Y004869D01*
X005820Y004898D01*
X005832Y004869D01*
X005909Y004792D01*
X006010Y004750D01*
X006120Y004750D01*
X006221Y004792D01*
X006298Y004869D01*
X006340Y004970D01*
X006340Y005080D01*
X006301Y005173D01*
X006303Y005173D01*
X006402Y005272D01*
X006402Y005688D01*
X006303Y005787D01*
X005887Y005787D01*
X005820Y005719D01*
X005753Y005787D01*
X005337Y005787D01*
X005238Y005688D01*
X005238Y005272D01*
X005337Y005173D01*
X005339Y005173D01*
X005300Y005080D01*
X005300Y004970D01*
X005342Y004869D01*
X005417Y004795D02*
X005252Y004795D01*
X005252Y004696D02*
X006652Y004696D01*
X006594Y004598D02*
X006204Y004598D01*
X006248Y004499D02*
X006580Y004499D01*
X006603Y004401D02*
X006250Y004401D01*
X006243Y004302D02*
X006674Y004302D01*
X006855Y004510D02*
X007015Y004350D01*
X007223Y004350D01*
X007428Y004499D02*
X007452Y004499D01*
X007545Y004598D02*
X007116Y004598D01*
X007058Y004696D02*
X007545Y004696D01*
X007545Y004795D02*
X006223Y004795D01*
X006308Y004893D02*
X007545Y004893D01*
X007148Y004992D02*
X006340Y004992D01*
X006336Y005090D02*
X007148Y005090D01*
X007148Y005189D02*
X006318Y005189D01*
X006402Y005287D02*
X007148Y005287D01*
X007148Y005386D02*
X006402Y005386D01*
X006402Y005484D02*
X007148Y005484D01*
X007148Y005583D02*
X006402Y005583D01*
X006402Y005681D02*
X007148Y005681D01*
X007148Y005780D02*
X006310Y005780D01*
X006317Y005878D02*
X007148Y005878D01*
X007113Y005977D02*
X006402Y005977D01*
X006402Y006075D02*
X007108Y006075D01*
X007108Y006070D02*
X007416Y006070D01*
X008105Y006070D01*
X008400Y005775D01*
X008695Y005480D01*
X009384Y005480D01*
X009384Y005677D02*
X009588Y005677D01*
X010185Y005080D01*
X010185Y004940D01*
X010395Y004730D01*
X010458Y004730D01*
X010458Y005070D02*
X010458Y005081D01*
X009666Y005873D01*
X009384Y005873D01*
X009384Y006070D02*
X009859Y006070D01*
X009913Y006010D01*
X009913Y006267D02*
X009913Y006330D01*
X009913Y006552D01*
X009755Y006710D01*
X010030Y006666D02*
X013700Y006666D01*
X013700Y006568D02*
X010510Y006568D01*
X010598Y006469D02*
X013700Y006469D01*
X013700Y006371D02*
X012422Y006371D01*
X012414Y006378D02*
X012380Y006398D01*
X012342Y006408D01*
X011770Y006408D01*
X011770Y006120D01*
X011693Y006120D01*
X011693Y006408D01*
X011121Y006408D01*
X011083Y006398D01*
X011049Y006378D01*
X011021Y006350D01*
X011001Y006316D01*
X010991Y006278D01*
X010991Y006120D01*
X011693Y006120D01*
X011693Y006043D01*
X010991Y006043D01*
X010991Y005884D01*
X011001Y005846D01*
X011021Y005812D01*
X011049Y005784D01*
X011083Y005764D01*
X011121Y005754D01*
X011693Y005754D01*
X011693Y006043D01*
X011770Y006043D01*
X011770Y006120D01*
X012472Y006120D01*
X012472Y006278D01*
X012462Y006316D01*
X012442Y006350D01*
X012414Y006378D01*
X012472Y006272D02*
X013700Y006272D01*
X013700Y006174D02*
X012472Y006174D01*
X012472Y006043D02*
X011770Y006043D01*
X011770Y005754D01*
X012342Y005754D01*
X012380Y005764D01*
X012414Y005784D01*
X012442Y005812D01*
X012462Y005846D01*
X012472Y005884D01*
X012472Y006043D01*
X012472Y005977D02*
X013700Y005977D01*
X013700Y006075D02*
X011770Y006075D01*
X011693Y006075D02*
X010615Y006075D01*
X010615Y006001D02*
X010356Y006001D01*
X010356Y005742D01*
X010428Y005742D01*
X010483Y005757D01*
X010532Y005785D01*
X010572Y005825D01*
X010600Y005874D01*
X010615Y005929D01*
X010615Y006001D01*
X010615Y005977D02*
X010991Y005977D01*
X010993Y005878D02*
X010601Y005878D01*
X010522Y005780D02*
X011057Y005780D01*
X011031Y005484D02*
X010282Y005484D01*
X010380Y005386D02*
X011031Y005386D01*
X010755Y005287D02*
X010595Y005287D01*
X010892Y005070D02*
X010900Y005070D01*
X010960Y005130D01*
X011050Y005130D01*
X011090Y005170D01*
X011608Y005170D01*
X011732Y005294D01*
X011693Y005780D02*
X011770Y005780D01*
X011770Y005878D02*
X011693Y005878D01*
X011693Y005977D02*
X011770Y005977D01*
X011770Y006174D02*
X011693Y006174D01*
X011693Y006272D02*
X011770Y006272D01*
X011770Y006371D02*
X011693Y006371D01*
X011041Y006371D02*
X010615Y006371D01*
X010615Y006272D02*
X010991Y006272D01*
X010991Y006174D02*
X010588Y006174D01*
X010356Y006174D02*
X010337Y006174D01*
X010337Y006272D02*
X010356Y006272D01*
X010356Y006278D02*
X010356Y006321D01*
X010337Y006321D01*
X010337Y006019D01*
X010356Y006019D01*
X010356Y006278D01*
X010356Y006371D02*
X010337Y006371D01*
X010337Y006469D02*
X010356Y006469D01*
X010356Y006568D02*
X010337Y006568D01*
X010183Y006568D02*
X010073Y006568D01*
X010030Y006765D02*
X012728Y006765D01*
X012578Y006863D02*
X009989Y006863D01*
X010221Y006962D02*
X012477Y006962D01*
X012406Y007060D02*
X010234Y007060D01*
X010234Y007159D02*
X012354Y007159D01*
X012318Y007257D02*
X009878Y007257D01*
X009878Y007291D02*
X010234Y007291D01*
X010234Y007477D01*
X010223Y007515D01*
X010204Y007549D01*
X010176Y007577D01*
X010142Y007597D01*
X010103Y007607D01*
X009878Y007607D01*
X009878Y007291D01*
X009878Y007356D02*
X009778Y007356D01*
X009778Y007454D02*
X009878Y007454D01*
X009878Y007553D02*
X009778Y007553D01*
X009698Y007820D02*
X009650Y007820D01*
X009384Y007554D01*
X009384Y006464D01*
X009384Y006267D02*
X009913Y006267D01*
X010337Y006075D02*
X010356Y006075D01*
X010356Y005977D02*
X010337Y005977D01*
X010337Y005878D02*
X010356Y005878D01*
X010356Y005780D02*
X010337Y005780D01*
X010171Y005780D02*
X009986Y005780D01*
X010085Y005681D02*
X013700Y005681D01*
X013700Y005583D02*
X010183Y005583D01*
X009617Y005283D02*
X009970Y004930D01*
X009970Y004413D01*
X010033Y004350D01*
X010033Y004313D01*
X009970Y004320D01*
X009970Y004145D01*
X010140Y003975D01*
X009865Y004007D02*
X009274Y004007D01*
X009300Y004105D02*
X009810Y004105D01*
X009810Y004204D02*
X009399Y004204D01*
X009511Y004302D02*
X009805Y004302D01*
X009805Y004401D02*
X009550Y004401D01*
X009550Y004499D02*
X009810Y004499D01*
X009810Y004598D02*
X009786Y004598D01*
X009575Y004775D02*
X009384Y004966D01*
X009384Y005086D01*
X009384Y005283D02*
X009617Y005283D01*
X009089Y004791D02*
X009089Y004636D01*
X009275Y004450D01*
X009025Y004125D02*
X008892Y004233D01*
X008892Y004791D01*
X008695Y004791D02*
X008695Y004295D01*
X008595Y004195D01*
X008550Y004150D01*
X008550Y003850D01*
X008542Y003842D01*
X008500Y003842D01*
X008825Y003925D02*
X009025Y004125D01*
X008825Y003925D02*
X008825Y002695D01*
X008650Y002520D01*
X008980Y002529D02*
X009048Y002529D01*
X009048Y002431D02*
X008980Y002431D01*
X008980Y002332D02*
X009048Y002332D01*
X009048Y002234D02*
X008959Y002234D01*
X008960Y002135D02*
X009048Y002135D01*
X009048Y002037D02*
X008980Y002037D01*
X008973Y001938D02*
X009048Y001938D01*
X009048Y001935D02*
X009113Y001871D01*
X009952Y001871D01*
X010016Y001935D01*
X010016Y002085D01*
X010584Y002085D01*
X010584Y001935D01*
X010648Y001871D01*
X011487Y001871D01*
X011552Y001935D01*
X011552Y002390D01*
X011601Y002390D01*
X011696Y002430D01*
X011769Y002503D01*
X012145Y002879D01*
X012185Y002974D01*
X012185Y003432D01*
X012368Y003432D01*
X012432Y003496D01*
X012432Y003942D01*
X012368Y004006D01*
X011096Y004006D01*
X011031Y003942D01*
X011031Y003496D01*
X011096Y003432D01*
X011665Y003432D01*
X011665Y003134D01*
X011552Y003021D01*
X011552Y003365D01*
X011487Y003429D01*
X010648Y003429D01*
X010584Y003365D01*
X010584Y003240D01*
X010016Y003240D01*
X010016Y003365D01*
X009952Y003429D01*
X009113Y003429D01*
X009048Y003365D01*
X009048Y001935D01*
X008932Y001840D02*
X012440Y001840D01*
X012378Y001938D02*
X011552Y001938D01*
X011552Y002037D02*
X012334Y002037D01*
X012305Y002135D02*
X011552Y002135D01*
X011552Y002234D02*
X012289Y002234D01*
X012293Y002431D02*
X011697Y002431D01*
X011796Y002529D02*
X012314Y002529D01*
X012348Y002628D02*
X011894Y002628D01*
X011993Y002726D02*
X012398Y002726D01*
X012466Y002825D02*
X012091Y002825D01*
X012164Y002923D02*
X012560Y002923D01*
X012704Y003022D02*
X012185Y003022D01*
X012185Y003120D02*
X013700Y003120D01*
X013700Y003022D02*
X013476Y003022D01*
X013620Y002923D02*
X013700Y002923D01*
X013700Y003219D02*
X012185Y003219D01*
X012185Y003317D02*
X013700Y003317D01*
X013700Y003416D02*
X012185Y003416D01*
X012432Y003514D02*
X013700Y003514D01*
X013700Y003613D02*
X012432Y003613D01*
X012432Y003711D02*
X013700Y003711D01*
X013700Y003810D02*
X012432Y003810D01*
X012432Y003908D02*
X013700Y003908D01*
X013700Y004007D02*
X010415Y004007D01*
X010410Y003908D02*
X011031Y003908D01*
X011031Y003810D02*
X010363Y003810D01*
X010221Y003711D02*
X011031Y003711D01*
X011031Y003613D02*
X008985Y003613D01*
X008985Y003711D02*
X010059Y003711D01*
X009917Y003810D02*
X008985Y003810D01*
X009197Y003908D02*
X009870Y003908D01*
X010384Y004105D02*
X010723Y004105D01*
X010977Y004105D02*
X013700Y004105D01*
X013700Y004204D02*
X011087Y004204D01*
X010850Y004350D02*
X010467Y004350D01*
X010892Y004698D02*
X010892Y004730D01*
X010892Y004698D02*
X010920Y004670D01*
X011050Y004670D01*
X011090Y004630D01*
X011608Y004630D01*
X011732Y004506D01*
X011152Y004795D02*
X013700Y004795D01*
X013700Y004893D02*
X011082Y004893D01*
X011138Y004992D02*
X013700Y004992D01*
X013700Y005090D02*
X012432Y005090D01*
X012432Y005189D02*
X013700Y005189D01*
X013700Y005287D02*
X012432Y005287D01*
X012432Y005386D02*
X013700Y005386D01*
X013700Y005484D02*
X012432Y005484D01*
X012407Y005780D02*
X013700Y005780D01*
X013700Y005878D02*
X012471Y005878D01*
X013040Y006765D02*
X013140Y006765D01*
X013140Y006863D02*
X013040Y006863D01*
X013040Y006962D02*
X013140Y006962D01*
X013140Y007060D02*
X013040Y007060D01*
X013040Y007159D02*
X013140Y007159D01*
X013140Y007257D02*
X013040Y007257D01*
X013040Y007356D02*
X013140Y007356D01*
X013040Y007454D02*
X010234Y007454D01*
X010234Y007356D02*
X012295Y007356D01*
X012287Y007553D02*
X010200Y007553D01*
X010157Y007651D02*
X012301Y007651D01*
X012328Y007750D02*
X010936Y007750D01*
X010922Y007735D02*
X010962Y007775D01*
X010990Y007824D01*
X011005Y007879D01*
X011005Y007951D01*
X010746Y007951D01*
X010746Y007692D01*
X010818Y007692D01*
X010873Y007707D01*
X010922Y007735D01*
X010746Y007750D02*
X010727Y007750D01*
X010727Y007848D02*
X010746Y007848D01*
X010746Y007947D02*
X010727Y007947D01*
X010727Y008045D02*
X010746Y008045D01*
X010746Y008144D02*
X010727Y008144D01*
X010963Y008144D02*
X012626Y008144D01*
X012512Y008045D02*
X011004Y008045D01*
X011005Y007947D02*
X012429Y007947D01*
X012370Y007848D02*
X010996Y007848D01*
X010537Y007750D02*
X010447Y007750D01*
X010344Y007949D02*
X010303Y007960D01*
X010344Y007949D02*
X009828Y007949D01*
X009698Y007820D01*
X009452Y007848D02*
X009328Y007848D01*
X009328Y007750D02*
X009353Y007750D01*
X009224Y007567D02*
X009224Y007567D01*
X008972Y007651D02*
X008872Y007651D01*
X008872Y007583D02*
X008647Y007583D01*
X008608Y007593D01*
X008574Y007613D01*
X008546Y007641D01*
X008527Y007675D01*
X008516Y007713D01*
X008516Y007899D01*
X008872Y007899D01*
X008972Y007899D01*
X008972Y007999D01*
X009328Y007999D01*
X009328Y008186D01*
X009318Y008224D01*
X009298Y008258D01*
X009270Y008286D01*
X009236Y008306D01*
X009198Y008316D01*
X008972Y008316D01*
X008972Y007999D01*
X008872Y007999D01*
X008872Y007899D01*
X008872Y007583D01*
X008872Y007750D02*
X008972Y007750D01*
X008972Y007848D02*
X008872Y007848D01*
X008872Y007947D02*
X007535Y007947D01*
X007478Y007848D02*
X008516Y007848D01*
X008516Y007750D02*
X007478Y007750D01*
X007478Y007651D02*
X008540Y007651D01*
X008606Y007553D02*
X007415Y007553D01*
X007458Y007454D02*
X007812Y007454D01*
X007828Y007470D02*
X007788Y007430D01*
X007760Y007381D01*
X007745Y007326D01*
X007745Y007254D01*
X008004Y007254D01*
X008004Y007513D01*
X007932Y007513D01*
X007877Y007498D01*
X007828Y007470D01*
X007753Y007356D02*
X007478Y007356D01*
X007478Y007257D02*
X007745Y007257D01*
X007747Y007159D02*
X007454Y007159D01*
X007609Y007027D02*
X007545Y006962D01*
X007609Y007027D02*
X007821Y007027D01*
X007788Y007060D01*
X008004Y007257D02*
X008023Y007257D01*
X008023Y007356D02*
X008004Y007356D01*
X008004Y007454D02*
X008023Y007454D01*
X008215Y007454D02*
X008302Y007454D01*
X008447Y007245D02*
X008922Y007245D01*
X008922Y007241D01*
X009089Y007074D01*
X009089Y006759D01*
X007545Y006765D02*
X007099Y006765D01*
X007180Y006666D02*
X007545Y006666D01*
X007545Y006863D02*
X006269Y006863D01*
X006294Y006962D02*
X006429Y006962D01*
X006418Y007060D02*
X006323Y007060D01*
X006323Y007159D02*
X006418Y007159D01*
X006418Y007257D02*
X006308Y007257D01*
X006279Y007356D02*
X006418Y007356D01*
X006485Y007454D02*
X006322Y007454D01*
X006325Y007553D02*
X006481Y007553D01*
X006459Y007565D02*
X006507Y007538D01*
X006560Y007523D01*
X006677Y007523D01*
X006677Y007822D01*
X006773Y007822D01*
X006773Y007919D01*
X006677Y007919D01*
X006677Y008217D01*
X006560Y008217D01*
X006507Y008203D01*
X006459Y008175D01*
X006420Y008136D01*
X006392Y008089D01*
X006378Y008036D01*
X006378Y007919D01*
X006677Y007919D01*
X006677Y007822D01*
X006378Y007822D01*
X006378Y007705D01*
X006392Y007652D01*
X006420Y007604D01*
X006459Y007565D01*
X006393Y007651D02*
X006291Y007651D01*
X006378Y007750D02*
X006202Y007750D01*
X005898Y007750D02*
X005627Y007750D01*
X005716Y007651D02*
X005809Y007651D01*
X005775Y007553D02*
X005750Y007553D01*
X005747Y007454D02*
X005778Y007454D01*
X005821Y007356D02*
X005705Y007356D01*
X005758Y007257D02*
X005882Y007257D01*
X005867Y007159D02*
X005773Y007159D01*
X005773Y007060D02*
X005867Y007060D01*
X005896Y006962D02*
X005744Y006962D01*
X005719Y006863D02*
X005921Y006863D01*
X005867Y006765D02*
X005773Y006765D01*
X005773Y006666D02*
X005867Y006666D01*
X005867Y006568D02*
X005773Y006568D01*
X005761Y006469D02*
X005879Y006469D01*
X006095Y006683D02*
X006095Y006170D01*
X006402Y006174D02*
X007075Y006174D01*
X007208Y006267D02*
X006935Y006540D01*
X006690Y006666D02*
X006323Y006666D01*
X006323Y006568D02*
X006660Y006568D01*
X006667Y006469D02*
X006311Y006469D01*
X006402Y006371D02*
X006716Y006371D01*
X006863Y006272D02*
X006402Y006272D01*
X007108Y006070D02*
X007416Y006070D01*
X007416Y006070D01*
X007416Y006267D02*
X007208Y006267D01*
X006771Y006765D02*
X006323Y006765D01*
X006095Y007117D02*
X006095Y007470D01*
X006050Y007515D01*
X005545Y007445D02*
X005475Y007515D01*
X005545Y007445D02*
X005545Y007117D01*
X005317Y007159D02*
X004788Y007159D01*
X004848Y007257D02*
X005332Y007257D01*
X005246Y007356D02*
X004848Y007356D01*
X004848Y007454D02*
X005203Y007454D01*
X005200Y007553D02*
X004811Y007553D01*
X004877Y007651D02*
X005234Y007651D01*
X005323Y007750D02*
X004895Y007750D01*
X004877Y007848D02*
X006677Y007848D01*
X006773Y007848D02*
X007022Y007848D01*
X007072Y007919D02*
X007072Y008036D01*
X007058Y008089D01*
X007030Y008136D01*
X006991Y008175D01*
X006943Y008203D01*
X006890Y008217D01*
X006773Y008217D01*
X006773Y007919D01*
X007072Y007919D01*
X007072Y007947D02*
X007090Y007947D01*
X007090Y008045D02*
X007069Y008045D01*
X007075Y008144D02*
X007023Y008144D01*
X007090Y008242D02*
X001350Y008242D01*
X001350Y008144D02*
X006427Y008144D01*
X006381Y008045D02*
X004414Y008045D01*
X004026Y008045D02*
X003561Y008045D01*
X003562Y007947D02*
X003962Y007947D01*
X003945Y007848D02*
X003562Y007848D01*
X003562Y007750D02*
X003964Y007750D01*
X004030Y007651D02*
X003562Y007651D01*
X003126Y007651D02*
X002814Y007651D01*
X002814Y007750D02*
X003126Y007750D01*
X003126Y007848D02*
X002814Y007848D01*
X002814Y007947D02*
X003126Y007947D01*
X003127Y008045D02*
X002813Y008045D01*
X002379Y008045D02*
X001350Y008045D01*
X001350Y007947D02*
X002378Y007947D01*
X002378Y007848D02*
X001350Y007848D01*
X001350Y007750D02*
X002378Y007750D01*
X002378Y007651D02*
X001350Y007651D01*
X001350Y007553D02*
X002378Y007553D01*
X002404Y007454D02*
X001350Y007454D01*
X001350Y007356D02*
X002446Y007356D01*
X002508Y007257D02*
X001350Y007257D01*
X001350Y007159D02*
X002410Y007159D01*
X002406Y007060D02*
X001350Y007060D01*
X001670Y006962D02*
X001770Y006962D01*
X001770Y006863D02*
X001670Y006863D01*
X001670Y006765D02*
X001770Y006765D01*
X001770Y006666D02*
X001670Y006666D01*
X001670Y006568D02*
X001770Y006568D01*
X001770Y006469D02*
X002378Y006469D01*
X002378Y006568D02*
X002244Y006568D01*
X002244Y006666D02*
X002378Y006666D01*
X002378Y006765D02*
X002244Y006765D01*
X002240Y006863D02*
X002378Y006863D01*
X002378Y006962D02*
X002165Y006962D01*
X002966Y006666D02*
X002974Y006666D01*
X002966Y006568D02*
X002974Y006568D01*
X002966Y006469D02*
X002974Y006469D01*
X002966Y006371D02*
X002974Y006371D01*
X003151Y006371D02*
X003154Y006371D01*
X002789Y006371D02*
X002244Y006371D01*
X002244Y006272D02*
X002746Y006272D01*
X002647Y006174D02*
X002244Y006174D01*
X002237Y006075D02*
X002549Y006075D01*
X002490Y005977D02*
X002136Y005977D01*
X002202Y005878D02*
X002490Y005878D01*
X002490Y005780D02*
X002244Y005780D01*
X002244Y005681D02*
X002490Y005681D01*
X002434Y005583D02*
X002244Y005583D01*
X002244Y005484D02*
X002378Y005484D01*
X002378Y005386D02*
X001770Y005386D01*
X001770Y005350D02*
X001770Y004450D01*
X001670Y004450D01*
X001670Y004924D01*
X001670Y005350D01*
X001770Y005350D01*
X001770Y005287D02*
X001670Y005287D01*
X001670Y005189D02*
X001770Y005189D01*
X001770Y005090D02*
X001670Y005090D01*
X001670Y004992D02*
X001770Y004992D01*
X001770Y004893D02*
X001670Y004893D01*
X001670Y004795D02*
X001770Y004795D01*
X001770Y004696D02*
X001670Y004696D01*
X001670Y004598D02*
X001770Y004598D01*
X001770Y004499D02*
X001670Y004499D01*
X001770Y004401D02*
X002338Y004401D01*
X002344Y004499D02*
X002244Y004499D01*
X002244Y004598D02*
X002378Y004598D01*
X002378Y004696D02*
X002244Y004696D01*
X002244Y004795D02*
X002378Y004795D01*
X002378Y004893D02*
X002187Y004893D01*
X002240Y004992D02*
X002378Y004992D01*
X002378Y005090D02*
X002244Y005090D01*
X002244Y005189D02*
X002378Y005189D01*
X002388Y005287D02*
X002244Y005287D01*
X001770Y005484D02*
X001670Y005484D01*
X001670Y005583D02*
X001770Y005583D01*
X001770Y005681D02*
X001670Y005681D01*
X001670Y005780D02*
X001770Y005780D01*
X001770Y005878D02*
X001670Y005878D01*
X001670Y005977D02*
X001770Y005977D01*
X001770Y006075D02*
X001670Y006075D01*
X001670Y006174D02*
X001770Y006174D01*
X001770Y006272D02*
X001670Y006272D01*
X001670Y006371D02*
X001770Y006371D01*
X002650Y005950D02*
X002850Y006150D01*
X003450Y006150D01*
X003450Y005850D01*
X003125Y005850D01*
X002900Y005625D01*
X002900Y005400D01*
X002650Y005400D01*
X002650Y005950D01*
X002677Y005977D02*
X003450Y005977D01*
X003450Y006075D02*
X002775Y006075D01*
X002650Y005878D02*
X003450Y005878D01*
X003622Y005878D02*
X003638Y005878D01*
X003638Y005971D02*
X003638Y005744D01*
X003648Y005706D01*
X003668Y005672D01*
X003696Y005644D01*
X003730Y005624D01*
X003768Y005614D01*
X003917Y005614D01*
X003917Y005971D01*
X003974Y005971D01*
X003974Y005614D01*
X004123Y005614D01*
X004161Y005624D01*
X004195Y005644D01*
X004223Y005672D01*
X004243Y005706D01*
X004253Y005744D01*
X004253Y005971D01*
X003974Y005971D01*
X003974Y006029D01*
X003917Y006029D01*
X003917Y006386D01*
X003768Y006386D01*
X003730Y006376D01*
X003696Y006356D01*
X003668Y006328D01*
X003648Y006294D01*
X003638Y006256D01*
X003638Y006029D01*
X003917Y006029D01*
X003917Y005971D01*
X003638Y005971D01*
X003622Y005977D02*
X003917Y005977D01*
X003974Y005977D02*
X005238Y005977D01*
X005238Y006075D02*
X004253Y006075D01*
X004253Y006029D02*
X004253Y006256D01*
X004243Y006294D01*
X004223Y006328D01*
X004195Y006356D01*
X004161Y006376D01*
X004123Y006386D01*
X003974Y006386D01*
X003974Y006029D01*
X004253Y006029D01*
X004253Y006174D02*
X005238Y006174D01*
X005238Y006272D02*
X004248Y006272D01*
X004170Y006371D02*
X005238Y006371D01*
X005329Y006469D02*
X004354Y006469D01*
X004424Y006568D02*
X005317Y006568D01*
X005317Y006666D02*
X004741Y006666D01*
X004629Y006666D02*
X004611Y006666D01*
X004611Y006765D02*
X004629Y006765D01*
X004629Y006863D02*
X004611Y006863D01*
X004360Y007037D02*
X004334Y007052D01*
X004296Y007062D01*
X004360Y007037D02*
X004367Y007060D01*
X004386Y007159D02*
X004452Y007159D01*
X004069Y007060D02*
X004011Y007060D01*
X004011Y007062D02*
X003784Y007062D01*
X003746Y007052D01*
X003712Y007032D01*
X003684Y007004D01*
X003664Y006970D01*
X003654Y006932D01*
X003654Y006783D01*
X004011Y006783D01*
X004011Y007062D01*
X004011Y006962D02*
X004069Y006962D01*
X004069Y006863D02*
X004011Y006863D01*
X004011Y006765D02*
X003562Y006765D01*
X003562Y006863D02*
X003654Y006863D01*
X003662Y006962D02*
X003562Y006962D01*
X003534Y007060D02*
X003776Y007060D01*
X003694Y007159D02*
X003530Y007159D01*
X003562Y006666D02*
X003654Y006666D01*
X003656Y006568D02*
X003562Y006568D01*
X003562Y006469D02*
X003726Y006469D01*
X003720Y006371D02*
X003534Y006371D01*
X003622Y006272D02*
X003642Y006272D01*
X003917Y006272D02*
X003974Y006272D01*
X003974Y006371D02*
X003917Y006371D01*
X004011Y006469D02*
X004069Y006469D01*
X004069Y006568D02*
X004011Y006568D01*
X004011Y006666D02*
X004069Y006666D01*
X004426Y006666D02*
X004499Y006666D01*
X004860Y006765D02*
X005317Y006765D01*
X005371Y006863D02*
X004888Y006863D01*
X005545Y006683D02*
X005545Y006170D01*
X005767Y005878D02*
X005873Y005878D01*
X005880Y005780D02*
X005760Y005780D01*
X005545Y005480D02*
X005575Y005450D01*
X005575Y005025D01*
X005818Y004893D02*
X005822Y004893D01*
X005907Y004795D02*
X005733Y004795D01*
X005715Y004598D02*
X005759Y004598D01*
X005972Y004598D02*
X005991Y004598D01*
X005991Y004499D02*
X005972Y004499D01*
X005548Y004410D02*
X005485Y004410D01*
X005485Y004034D01*
X005288Y004034D02*
X005288Y004034D01*
X005288Y004342D01*
X005288Y004034D01*
X005288Y003148D01*
X005190Y003050D01*
X004895Y003345D01*
X004206Y003345D01*
X004206Y003148D02*
X003882Y003148D01*
X003820Y003207D01*
X003820Y003150D01*
X003590Y003150D01*
X003430Y003320D01*
X003367Y002930D02*
X003663Y002930D01*
X003820Y002773D01*
X003811Y002726D02*
X003829Y002726D01*
X003829Y002628D02*
X003811Y002628D01*
X003811Y002529D02*
X003829Y002529D01*
X003938Y002431D02*
X003702Y002431D01*
X003702Y002332D02*
X003938Y002332D01*
X003964Y002234D02*
X003702Y002234D01*
X003666Y002135D02*
X004046Y002135D01*
X004046Y002037D02*
X002573Y002037D01*
X002630Y002094D02*
X002630Y002700D01*
X002656Y002726D02*
X002695Y002726D01*
X002698Y002825D02*
X002705Y002825D01*
X002470Y002893D02*
X002470Y002160D01*
X001960Y001650D01*
X001805Y001650D01*
X001742Y001587D01*
X002017Y001933D02*
X001350Y001933D01*
X001350Y002067D01*
X001692Y002067D01*
X001692Y002403D01*
X001792Y002403D01*
X001792Y002067D01*
X002151Y002067D01*
X002017Y001933D01*
X002022Y001938D02*
X001350Y001938D01*
X001350Y002037D02*
X002120Y002037D01*
X002285Y002234D02*
X002310Y002234D01*
X002310Y002332D02*
X002285Y002332D01*
X002630Y002332D02*
X002695Y002332D01*
X002695Y002234D02*
X002630Y002234D01*
X002630Y002135D02*
X002731Y002135D01*
X002630Y002094D02*
X002245Y001709D01*
X002277Y001741D02*
X002655Y001741D01*
X002655Y001643D02*
X002245Y001643D01*
X002245Y001544D02*
X003148Y001544D01*
X003148Y001643D02*
X003248Y001643D01*
X003248Y001741D02*
X003148Y001741D01*
X003148Y001840D02*
X003248Y001840D01*
X003248Y001938D02*
X003148Y001938D01*
X002707Y001938D02*
X002474Y001938D01*
X002376Y001840D02*
X002655Y001840D01*
X003248Y001544D02*
X003874Y001544D01*
X003855Y001643D02*
X003742Y001643D01*
X003742Y001741D02*
X003872Y001741D01*
X003936Y001840D02*
X003742Y001840D01*
X003689Y001938D02*
X004046Y001938D01*
X004206Y001721D02*
X004130Y001645D01*
X004206Y001721D02*
X004206Y002361D01*
X004698Y002066D02*
X004698Y001783D01*
X004565Y001650D01*
X004749Y001446D02*
X004831Y001446D01*
X005015Y001650D02*
X004895Y001770D01*
X004895Y002066D01*
X005485Y002066D02*
X005485Y001695D01*
X005440Y001650D01*
X005624Y001446D02*
X005681Y001446D01*
X005865Y001650D02*
X005682Y001833D01*
X005682Y002066D01*
X005879Y002066D02*
X006449Y002066D01*
X006665Y001850D01*
X006720Y001850D01*
X006461Y001529D02*
X006315Y001675D01*
X006461Y001529D02*
X006943Y001529D01*
X007120Y001705D01*
X007120Y001990D01*
X006749Y002361D01*
X006174Y002361D01*
X006174Y002558D02*
X006498Y002558D01*
X006615Y002675D01*
X006890Y002628D02*
X007337Y002628D01*
X007320Y002586D02*
X007320Y002454D01*
X007370Y002333D01*
X007405Y002298D01*
X007363Y002256D01*
X007322Y002195D01*
X007294Y002128D01*
X007280Y002056D01*
X006832Y002504D01*
X006848Y002519D01*
X006890Y002620D01*
X006890Y002730D01*
X006848Y002831D01*
X006771Y002908D01*
X006670Y002950D01*
X006560Y002950D01*
X006459Y002908D01*
X006442Y002891D01*
X006442Y003015D01*
X006676Y003015D01*
X006744Y003083D01*
X006750Y003083D01*
X006750Y003020D01*
X006792Y002919D01*
X006869Y002842D01*
X006970Y002800D01*
X007080Y002800D01*
X007181Y002842D01*
X007258Y002919D01*
X007300Y003020D01*
X007300Y003130D01*
X007258Y003231D01*
X007181Y003308D01*
X007080Y003350D01*
X006976Y003350D01*
X006923Y003403D01*
X006744Y003403D01*
X006687Y003460D01*
X006778Y003551D01*
X006778Y003580D01*
X006933Y003580D01*
X006951Y003563D01*
X006997Y003517D01*
X006998Y003517D01*
X007490Y003033D01*
X007490Y002811D01*
X007463Y002800D01*
X007370Y002707D01*
X007320Y002586D01*
X007320Y002529D02*
X006852Y002529D01*
X006905Y002431D02*
X007330Y002431D01*
X007371Y002332D02*
X007004Y002332D01*
X007102Y002234D02*
X007348Y002234D01*
X007297Y002135D02*
X007201Y002135D01*
X007280Y002037D02*
X007280Y002037D01*
X007280Y002020D02*
X007280Y001984D01*
X007294Y001912D01*
X007322Y001845D01*
X007363Y001784D01*
X007414Y001733D01*
X007475Y001692D01*
X007542Y001664D01*
X007614Y001650D01*
X007650Y001650D01*
X007650Y002020D01*
X007650Y002020D01*
X007650Y002020D01*
X007280Y002020D01*
X007280Y001938D02*
X007289Y001938D01*
X007280Y001840D02*
X007326Y001840D01*
X007280Y001741D02*
X007406Y001741D01*
X007280Y001643D02*
X012645Y001643D01*
X012526Y001741D02*
X008838Y001741D01*
X008462Y001741D02*
X008338Y001741D01*
X007962Y001741D02*
X007894Y001741D01*
X007650Y001741D02*
X007650Y001741D01*
X007650Y001840D02*
X007650Y001840D01*
X007650Y001938D02*
X007650Y001938D01*
X007186Y001545D02*
X007186Y001545D01*
X007185Y001544D02*
X012857Y001544D01*
X013040Y001544D02*
X013140Y001544D01*
X013140Y001643D02*
X013040Y001643D01*
X013040Y001741D02*
X013140Y001741D01*
X013140Y001840D02*
X013040Y001840D01*
X013040Y001938D02*
X013140Y001938D01*
X013140Y002037D02*
X013040Y002037D01*
X013040Y002135D02*
X013140Y002135D01*
X013140Y002234D02*
X013040Y002234D01*
X013040Y002332D02*
X011552Y002332D01*
X010584Y002037D02*
X010016Y002037D01*
X010016Y001938D02*
X010584Y001938D01*
X009048Y002628D02*
X008984Y002628D01*
X008985Y002726D02*
X009048Y002726D01*
X009048Y002825D02*
X008985Y002825D01*
X008985Y002923D02*
X009048Y002923D01*
X009048Y003022D02*
X008985Y003022D01*
X008985Y003120D02*
X009048Y003120D01*
X009048Y003219D02*
X008985Y003219D01*
X008985Y003317D02*
X009048Y003317D01*
X009099Y003416D02*
X008985Y003416D01*
X008985Y003514D02*
X011031Y003514D01*
X010634Y003416D02*
X009966Y003416D01*
X010016Y003317D02*
X010584Y003317D01*
X011501Y003416D02*
X011665Y003416D01*
X011665Y003317D02*
X011552Y003317D01*
X011552Y003219D02*
X011665Y003219D01*
X011651Y003120D02*
X011552Y003120D01*
X011552Y003022D02*
X011553Y003022D01*
X013040Y003022D02*
X013140Y003022D01*
X013140Y002923D02*
X013040Y002923D01*
X013040Y002825D02*
X013140Y002825D01*
X013140Y002726D02*
X013040Y002726D01*
X013040Y002628D02*
X013140Y002628D01*
X013140Y002529D02*
X013040Y002529D01*
X013040Y002431D02*
X013140Y002431D01*
X013654Y001741D02*
X013700Y001741D01*
X013700Y001643D02*
X013535Y001643D01*
X013700Y001544D02*
X013323Y001544D01*
X013700Y001446D02*
X007086Y001446D01*
X006156Y001446D02*
X006049Y001446D01*
X005256Y001446D02*
X005199Y001446D01*
X004381Y001446D02*
X004319Y001446D01*
X003941Y001446D02*
X003742Y001446D01*
X002655Y001446D02*
X002245Y001446D01*
X001792Y002135D02*
X001692Y002135D01*
X001692Y002234D02*
X001792Y002234D01*
X001792Y002332D02*
X001692Y002332D01*
X001670Y003416D02*
X001770Y003416D01*
X001770Y003514D02*
X001670Y003514D01*
X001670Y003613D02*
X001770Y003613D01*
X001770Y003711D02*
X001670Y003711D01*
X001670Y003810D02*
X001770Y003810D01*
X001770Y003908D02*
X001670Y003908D01*
X001670Y004007D02*
X001770Y004007D01*
X001770Y004105D02*
X001670Y004105D01*
X001670Y004204D02*
X001770Y004204D01*
X001770Y004302D02*
X001670Y004302D01*
X002244Y004302D02*
X002338Y004302D01*
X002391Y004204D02*
X002244Y004204D01*
X003294Y004900D02*
X003333Y004858D01*
X003294Y004900D02*
X002763Y004900D01*
X002763Y005156D02*
X003294Y005156D01*
X003333Y005198D01*
X003168Y005386D02*
X003149Y005386D01*
X003149Y005484D02*
X005238Y005484D01*
X005238Y005386D02*
X005018Y005386D01*
X005077Y005287D02*
X005238Y005287D01*
X005322Y005189D02*
X005090Y005189D01*
X005067Y005090D02*
X005304Y005090D01*
X005300Y004992D02*
X005055Y004992D01*
X005252Y004598D02*
X005382Y004598D01*
X005320Y004499D02*
X005252Y004499D01*
X005252Y004401D02*
X005320Y004401D01*
X005288Y004302D02*
X005288Y004302D01*
X005288Y004204D02*
X005288Y004204D01*
X005288Y004105D02*
X005288Y004105D01*
X006045Y004105D02*
X007845Y004105D01*
X007869Y004007D02*
X006045Y004007D01*
X006045Y003908D02*
X006494Y003908D01*
X006512Y003908D02*
X007943Y003908D01*
X007960Y003810D02*
X007157Y003810D01*
X007257Y003711D02*
X007960Y003711D01*
X007960Y003613D02*
X007357Y003613D01*
X007457Y003514D02*
X007960Y003514D01*
X007960Y003416D02*
X007557Y003416D01*
X007657Y003317D02*
X007960Y003317D01*
X007960Y003219D02*
X007758Y003219D01*
X007810Y003120D02*
X007960Y003120D01*
X007960Y003022D02*
X007810Y003022D01*
X007810Y002923D02*
X007960Y002923D01*
X007960Y002825D02*
X007810Y002825D01*
X007490Y002825D02*
X007139Y002825D01*
X007260Y002923D02*
X007490Y002923D01*
X007490Y003022D02*
X007300Y003022D01*
X007300Y003120D02*
X007401Y003120D01*
X007301Y003219D02*
X007263Y003219D01*
X007201Y003317D02*
X007159Y003317D01*
X007101Y003416D02*
X006732Y003416D01*
X006741Y003514D02*
X007001Y003514D01*
X007063Y003677D02*
X007650Y003100D01*
X007650Y002520D01*
X007389Y002726D02*
X006890Y002726D01*
X006911Y002825D02*
X006851Y002825D01*
X006790Y002923D02*
X006735Y002923D01*
X006750Y003022D02*
X006682Y003022D01*
X006495Y002923D02*
X006442Y002923D01*
X006857Y003243D02*
X007025Y003075D01*
X006857Y003243D02*
X006550Y003243D01*
X006550Y003677D02*
X006550Y003740D01*
X007000Y003740D01*
X007063Y003677D01*
X006550Y003677D02*
X006517Y003739D01*
X006174Y003739D01*
X006185Y004204D02*
X006935Y004204D01*
X007431Y004204D02*
X007449Y004204D01*
X007657Y004350D02*
X007717Y004410D01*
X008110Y004410D01*
X008302Y004602D01*
X008302Y004791D01*
X008302Y004788D01*
X008498Y004791D02*
X008498Y004548D01*
X008120Y004170D01*
X008120Y004120D01*
X008120Y002550D01*
X008150Y002520D01*
X008490Y003020D02*
X008500Y003030D01*
X008500Y003408D01*
X006065Y005025D02*
X006065Y005450D01*
X006095Y005480D01*
X005330Y005780D02*
X004253Y005780D01*
X004253Y005878D02*
X005323Y005878D01*
X005238Y005681D02*
X004228Y005681D01*
X003974Y005681D02*
X003917Y005681D01*
X003917Y005780D02*
X003974Y005780D01*
X003974Y005878D02*
X003917Y005878D01*
X003638Y005780D02*
X003622Y005780D01*
X003585Y005681D02*
X003662Y005681D01*
X003601Y005386D02*
X003499Y005386D01*
X003767Y005198D02*
X003806Y005250D01*
X004293Y005250D01*
X004190Y004900D02*
X003806Y004900D01*
X003767Y004858D01*
X002900Y005484D02*
X002650Y005484D01*
X002650Y005583D02*
X002900Y005583D01*
X002956Y005681D02*
X002650Y005681D01*
X002650Y005780D02*
X003055Y005780D01*
X003093Y005583D02*
X005238Y005583D01*
X003974Y006075D02*
X003917Y006075D01*
X003917Y006174D02*
X003974Y006174D01*
X003638Y006174D02*
X003622Y006174D01*
X003622Y006075D02*
X003638Y006075D01*
X006725Y007180D02*
X006814Y007269D01*
X007211Y007269D01*
X007250Y007308D01*
X007042Y007454D02*
X006965Y007454D01*
X006969Y007553D02*
X007085Y007553D01*
X007250Y007742D02*
X007250Y008050D01*
X007350Y008150D01*
X007604Y008045D02*
X008516Y008045D01*
X008516Y007999D02*
X008872Y007999D01*
X008872Y008316D01*
X008647Y008316D01*
X008608Y008306D01*
X008574Y008286D01*
X008546Y008258D01*
X008527Y008224D01*
X008516Y008186D01*
X008516Y007999D01*
X008516Y008144D02*
X007625Y008144D01*
X007610Y008242D02*
X008537Y008242D01*
X008872Y008242D02*
X008972Y008242D01*
X008972Y008144D02*
X008872Y008144D01*
X008872Y008045D02*
X008972Y008045D01*
X008972Y007947D02*
X009462Y007947D01*
X009462Y008045D02*
X009328Y008045D01*
X009328Y008144D02*
X009462Y008144D01*
X009492Y008242D02*
X009307Y008242D01*
X010163Y008242D02*
X012814Y008242D01*
X013040Y008242D02*
X013140Y008242D01*
X013140Y008144D02*
X013040Y008144D01*
X013040Y008045D02*
X013140Y008045D01*
X013140Y007947D02*
X013040Y007947D01*
X013040Y007848D02*
X013140Y007848D01*
X013140Y007750D02*
X013040Y007750D01*
X013040Y007651D02*
X013140Y007651D01*
X013140Y007553D02*
X013040Y007553D01*
X013668Y008045D02*
X013700Y008045D01*
X013700Y008144D02*
X013554Y008144D01*
X013700Y008242D02*
X013366Y008242D01*
X013700Y008341D02*
X007548Y008341D01*
X007152Y008341D02*
X001350Y008341D01*
X001350Y008439D02*
X013700Y008439D01*
X013700Y006863D02*
X013602Y006863D01*
X013700Y006765D02*
X013452Y006765D01*
X010510Y008144D02*
X010474Y008144D01*
X006773Y008144D02*
X006677Y008144D01*
X006677Y008045D02*
X006773Y008045D01*
X006773Y007947D02*
X006677Y007947D01*
X006677Y007750D02*
X006773Y007750D01*
X006773Y007651D02*
X006677Y007651D01*
X006677Y007553D02*
X006773Y007553D01*
X006378Y007947D02*
X004812Y007947D01*
X003767Y004183D02*
X003880Y004070D01*
X012432Y004302D02*
X013700Y004302D01*
X013700Y004401D02*
X012432Y004401D01*
X012432Y004499D02*
X013700Y004499D01*
X013700Y004598D02*
X012432Y004598D01*
X012432Y004696D02*
X013700Y004696D01*
D29*
X010850Y004350D03*
X010140Y003975D03*
X009275Y004450D03*
X009025Y004125D03*
X008595Y004195D03*
X008120Y004120D03*
X006855Y004510D03*
X006065Y005025D03*
X005575Y005025D03*
X004815Y005200D03*
X004190Y004900D03*
X004540Y004470D03*
X003880Y004070D03*
X003430Y003320D03*
X004130Y001645D03*
X004565Y001650D03*
X005015Y001650D03*
X005440Y001650D03*
X005865Y001650D03*
X006315Y001675D03*
X006720Y001850D03*
X006615Y002675D03*
X007025Y003075D03*
X008490Y003020D03*
X010300Y002900D03*
X010300Y002400D03*
X009575Y004775D03*
X006935Y006540D03*
X006050Y007515D03*
X005475Y007515D03*
X004620Y007750D03*
X004220Y007850D03*
X007350Y008150D03*
X009755Y006710D03*
X002875Y005875D03*
D30*
X003344Y006011D02*
X003355Y006000D01*
X003344Y006011D02*
X003344Y006738D01*
X003344Y007076D01*
X003270Y007150D01*
X002670Y007150D01*
X002596Y007076D01*
X002596Y006738D01*
X002690Y007380D02*
X004000Y007380D01*
X004035Y007345D01*
X004040Y007345D01*
X004051Y007356D01*
X004581Y007356D01*
X004620Y007357D01*
X004620Y007750D01*
X004520Y007850D01*
X004220Y007850D01*
X002690Y007380D02*
X002596Y007474D01*
X002596Y007762D01*
X010086Y003050D02*
X010525Y003050D01*
X010525Y002275D01*
X010086Y002275D01*
X010086Y002570D01*
X009612Y002570D01*
X009612Y002730D01*
X010086Y002730D01*
X010086Y003050D01*
X010086Y002894D02*
X010525Y002894D01*
X010525Y002735D02*
X010086Y002735D01*
X010525Y002577D02*
X009612Y002577D01*
X010086Y002418D02*
X010525Y002418D01*
D31*
X011068Y002650D02*
X011549Y002650D01*
X011925Y003026D01*
X011925Y003719D01*
X011732Y003719D01*
M02*
