G75*
G70*
%OFA0B0*%
%FSLAX24Y24*%
%IPPOS*%
%LPD*%
%AMOC8*
5,1,8,0,0,1.08239X$1,22.5*
%
%ADD10C,0.1310*%
%ADD11C,0.0440*%
%ADD12R,0.0440X0.0440*%
%ADD13C,0.0330*%
%ADD14C,0.0100*%
%ADD15C,0.0160*%
%ADD16C,0.0300*%
D10*
X013090Y002315D03*
X013090Y007485D03*
D11*
X008150Y002520D03*
X007650Y002520D03*
X007650Y002020D03*
X008150Y002020D03*
X008650Y002020D03*
D12*
X008650Y002520D03*
D13*
X008490Y003020D03*
X007025Y003075D03*
X006615Y002675D03*
X006720Y001850D03*
X006315Y001675D03*
X005865Y001650D03*
X005440Y001650D03*
X005015Y001650D03*
X004565Y001650D03*
X004130Y001645D03*
X003430Y003320D03*
X003880Y004070D03*
X004540Y004470D03*
X004190Y004900D03*
X004815Y005200D03*
X005575Y005025D03*
X006065Y005025D03*
X006855Y004510D03*
X008120Y004120D03*
X008595Y004195D03*
X009025Y004125D03*
X009275Y004450D03*
X009575Y004775D03*
X010850Y004350D03*
X010140Y003975D03*
X010300Y002900D03*
X010300Y002400D03*
X006935Y006540D03*
X006050Y007515D03*
X005475Y007515D03*
X004620Y007750D03*
X004220Y007850D03*
X007350Y008150D03*
X009755Y006710D03*
X002875Y005875D03*
D14*
X001350Y008450D02*
X001350Y001350D01*
X013700Y001350D01*
X013700Y001843D01*
X013523Y001666D01*
X013242Y001550D01*
X012938Y001550D01*
X012657Y001666D01*
X012441Y001882D01*
X012325Y002163D01*
X012325Y002467D01*
X012441Y002748D01*
X012657Y002964D01*
X012938Y003080D01*
X013242Y003080D01*
X013523Y002964D01*
X013700Y002787D01*
X013700Y007013D01*
X013523Y006836D01*
X013242Y006720D01*
X012938Y006720D01*
X012657Y006836D01*
X012441Y007052D01*
X012325Y007333D01*
X012325Y007637D01*
X012441Y007918D01*
X012657Y008134D01*
X012938Y008250D01*
X013242Y008250D01*
X013523Y008134D01*
X013700Y007957D01*
X013700Y008450D01*
X001350Y008450D01*
X001350Y008439D02*
X013700Y008439D01*
X013700Y008341D02*
X001350Y008341D01*
X001350Y008242D02*
X012919Y008242D01*
X012681Y008144D02*
X001350Y008144D01*
X001350Y008045D02*
X012568Y008045D01*
X012470Y007947D02*
X001350Y007947D01*
X001350Y007848D02*
X012412Y007848D01*
X012372Y007750D02*
X001350Y007750D01*
X001350Y007651D02*
X012331Y007651D01*
X012325Y007553D02*
X001350Y007553D01*
X001350Y007454D02*
X012325Y007454D01*
X012325Y007356D02*
X001350Y007356D01*
X001350Y007257D02*
X012356Y007257D01*
X012397Y007159D02*
X001350Y007159D01*
X001350Y007060D02*
X012438Y007060D01*
X012532Y006962D02*
X001350Y006962D01*
X001350Y006863D02*
X012630Y006863D01*
X012830Y006765D02*
X001350Y006765D01*
X001350Y006666D02*
X013700Y006666D01*
X013700Y006568D02*
X001350Y006568D01*
X001350Y006469D02*
X013700Y006469D01*
X013700Y006371D02*
X009767Y006371D01*
X009765Y006371D02*
X003060Y006371D01*
X002964Y006332D01*
X002755Y006123D01*
X002719Y006108D01*
X002642Y006031D01*
X002600Y005930D01*
X002600Y005820D01*
X002642Y005719D01*
X002715Y005646D01*
X002715Y004959D01*
X002809Y004865D01*
X003270Y004404D01*
X003364Y004310D01*
X004311Y004310D01*
X004384Y004237D01*
X004485Y004195D01*
X004595Y004195D01*
X004696Y004237D01*
X004773Y004314D01*
X004815Y004415D01*
X004815Y004525D01*
X004773Y004626D01*
X004696Y004703D01*
X004597Y004744D01*
X004639Y004788D01*
X004685Y004834D01*
X004685Y004835D01*
X004772Y004925D01*
X004870Y004925D01*
X004971Y004967D01*
X005048Y005044D01*
X005090Y005145D01*
X005090Y005255D01*
X005048Y005356D01*
X004971Y005433D01*
X004870Y005475D01*
X004760Y005475D01*
X004659Y005433D01*
X004582Y005356D01*
X004540Y005255D01*
X004540Y005146D01*
X004457Y005060D01*
X004419Y005060D01*
X004346Y005133D01*
X004245Y005175D01*
X004135Y005175D01*
X004034Y005133D01*
X003957Y005056D01*
X003915Y004955D01*
X003915Y004845D01*
X003957Y004744D01*
X004034Y004667D01*
X004123Y004630D01*
X003496Y004630D01*
X003035Y005091D01*
X003035Y005646D01*
X003108Y005719D01*
X003123Y005755D01*
X003219Y005851D01*
X005700Y005851D01*
X005090Y005241D01*
X005090Y003981D01*
X004890Y003781D01*
X004890Y002756D01*
X004038Y001905D01*
X003974Y001878D01*
X003897Y001801D01*
X003855Y001700D01*
X003855Y001590D01*
X003897Y001489D01*
X003974Y001412D01*
X004075Y001370D01*
X004185Y001370D01*
X004286Y001412D01*
X004350Y001476D01*
X004409Y001417D01*
X004510Y001375D01*
X004620Y001375D01*
X004721Y001417D01*
X004790Y001486D01*
X004859Y001417D01*
X004960Y001375D01*
X005070Y001375D01*
X005171Y001417D01*
X005227Y001474D01*
X005284Y001417D01*
X005385Y001375D01*
X005495Y001375D01*
X005596Y001417D01*
X005652Y001474D01*
X005709Y001417D01*
X005810Y001375D01*
X005920Y001375D01*
X006021Y001417D01*
X006098Y001494D01*
X006101Y001500D01*
X006159Y001442D01*
X006260Y001400D01*
X006370Y001400D01*
X006471Y001442D01*
X006548Y001519D01*
X006585Y001608D01*
X006665Y001575D01*
X006769Y001575D01*
X006835Y001509D01*
X006929Y001415D01*
X008039Y001415D01*
X008133Y001509D01*
X008216Y001592D01*
X008310Y001686D01*
X008310Y001729D01*
X008337Y001740D01*
X008372Y001775D01*
X008414Y001733D01*
X008475Y001692D01*
X008542Y001664D01*
X008614Y001650D01*
X008650Y001650D01*
X008686Y001650D01*
X008758Y001664D01*
X008825Y001692D01*
X008886Y001733D01*
X008937Y001784D01*
X008978Y001845D01*
X009006Y001912D01*
X009020Y001984D01*
X009020Y002020D01*
X009020Y002056D01*
X009006Y002128D01*
X008978Y002195D01*
X008955Y002229D01*
X008980Y002254D01*
X008980Y002786D01*
X008916Y002850D01*
X008384Y002850D01*
X008335Y002801D01*
X008216Y002850D01*
X008084Y002850D01*
X007963Y002800D01*
X007900Y002737D01*
X007837Y002800D01*
X007716Y002850D01*
X007584Y002850D01*
X007463Y002800D01*
X007370Y002707D01*
X007320Y002586D01*
X007320Y002454D01*
X007370Y002333D01*
X007433Y002270D01*
X007370Y002207D01*
X007320Y002086D01*
X007320Y001954D01*
X007370Y001833D01*
X007463Y001740D01*
X007476Y001735D01*
X007061Y001735D01*
X006995Y001801D01*
X006995Y001905D01*
X006953Y002006D01*
X006876Y002083D01*
X006775Y002125D01*
X006671Y002125D01*
X006420Y002376D01*
X006420Y002481D01*
X006459Y002442D01*
X006560Y002400D01*
X006670Y002400D01*
X006771Y002442D01*
X006848Y002519D01*
X006890Y002620D01*
X006890Y002730D01*
X006848Y002831D01*
X006775Y002904D01*
X006775Y003074D01*
X006941Y003240D01*
X009116Y003240D01*
X009654Y003777D01*
X009747Y003871D01*
X009747Y004558D01*
X009808Y004619D01*
X009850Y004720D01*
X009850Y004830D01*
X009808Y004931D01*
X009731Y005008D01*
X009630Y005050D01*
X009520Y005050D01*
X009419Y005008D01*
X009342Y004931D01*
X009300Y004830D01*
X009300Y004725D01*
X009220Y004725D01*
X009119Y004683D01*
X009042Y004606D01*
X009000Y004505D01*
X009000Y004400D01*
X008970Y004400D01*
X008869Y004358D01*
X008838Y004327D01*
X008828Y004351D01*
X008751Y004428D01*
X008650Y004470D01*
X008546Y004470D01*
X008434Y004583D01*
X007781Y004583D01*
X007688Y004489D01*
X007559Y004360D01*
X006414Y004360D01*
X006225Y004171D01*
X006225Y004796D01*
X006298Y004869D01*
X006340Y004970D01*
X006340Y005080D01*
X006298Y005181D01*
X006221Y005258D01*
X006120Y005300D01*
X006010Y005300D01*
X005909Y005258D01*
X005832Y005181D01*
X005820Y005152D01*
X005808Y005181D01*
X005731Y005258D01*
X005630Y005300D01*
X005601Y005300D01*
X005941Y005640D01*
X009259Y005640D01*
X009980Y004919D01*
X009980Y004204D01*
X009907Y004131D01*
X009865Y004030D01*
X009865Y003920D01*
X009907Y003819D01*
X009984Y003742D01*
X010085Y003700D01*
X010195Y003700D01*
X010296Y003742D01*
X010373Y003819D01*
X010415Y003920D01*
X010415Y004030D01*
X010373Y004131D01*
X010300Y004204D01*
X010300Y005051D01*
X010206Y005145D01*
X009500Y005851D01*
X009606Y005851D01*
X011175Y004282D01*
X011175Y003043D01*
X011042Y002910D01*
X010715Y002910D01*
X010715Y003129D01*
X010604Y003240D01*
X010006Y003240D01*
X009895Y003129D01*
X009895Y002196D01*
X010006Y002085D01*
X010604Y002085D01*
X010715Y002196D01*
X010715Y002390D01*
X011202Y002390D01*
X011297Y002430D01*
X011582Y002714D01*
X011655Y002788D01*
X011695Y002883D01*
X011695Y004442D01*
X011655Y004537D01*
X009934Y006259D01*
X009861Y006332D01*
X009765Y006371D01*
X009921Y006272D02*
X013700Y006272D01*
X013700Y006174D02*
X010019Y006174D01*
X010118Y006075D02*
X013700Y006075D01*
X013700Y005977D02*
X010216Y005977D01*
X010315Y005878D02*
X013700Y005878D01*
X013700Y005780D02*
X010413Y005780D01*
X010512Y005681D02*
X013700Y005681D01*
X013700Y005583D02*
X010610Y005583D01*
X010709Y005484D02*
X013700Y005484D01*
X013700Y005386D02*
X010807Y005386D01*
X010906Y005287D02*
X013700Y005287D01*
X013700Y005189D02*
X011004Y005189D01*
X011103Y005090D02*
X013700Y005090D01*
X013700Y004992D02*
X011201Y004992D01*
X011300Y004893D02*
X013700Y004893D01*
X013700Y004795D02*
X011398Y004795D01*
X011497Y004696D02*
X013700Y004696D01*
X013700Y004598D02*
X011595Y004598D01*
X011671Y004499D02*
X013700Y004499D01*
X013700Y004401D02*
X011695Y004401D01*
X011695Y004302D02*
X013700Y004302D01*
X013700Y004204D02*
X011695Y004204D01*
X011695Y004105D02*
X013700Y004105D01*
X013700Y004007D02*
X011695Y004007D01*
X011695Y003908D02*
X013700Y003908D01*
X013700Y003810D02*
X011695Y003810D01*
X011695Y003711D02*
X013700Y003711D01*
X013700Y003613D02*
X011695Y003613D01*
X011695Y003514D02*
X013700Y003514D01*
X013700Y003416D02*
X011695Y003416D01*
X011695Y003317D02*
X013700Y003317D01*
X013700Y003219D02*
X011695Y003219D01*
X011695Y003120D02*
X013700Y003120D01*
X013700Y003022D02*
X013383Y003022D01*
X013564Y002923D02*
X013700Y002923D01*
X013700Y002825D02*
X013662Y002825D01*
X012797Y003022D02*
X011695Y003022D01*
X011695Y002923D02*
X012616Y002923D01*
X012518Y002825D02*
X011671Y002825D01*
X011594Y002726D02*
X012432Y002726D01*
X012391Y002628D02*
X011495Y002628D01*
X011397Y002529D02*
X012351Y002529D01*
X012325Y002431D02*
X011298Y002431D01*
X010715Y002332D02*
X012325Y002332D01*
X012325Y002234D02*
X010715Y002234D01*
X010654Y002135D02*
X012337Y002135D01*
X012377Y002037D02*
X009020Y002037D01*
X009020Y002020D02*
X008650Y002020D01*
X008650Y002020D01*
X009020Y002020D01*
X009011Y001938D02*
X012418Y001938D01*
X012484Y001840D02*
X008974Y001840D01*
X008894Y001741D02*
X012582Y001741D01*
X012715Y001643D02*
X008267Y001643D01*
X008338Y001741D02*
X008406Y001741D01*
X008150Y001752D02*
X008150Y002020D01*
X008150Y001752D02*
X007973Y001575D01*
X006995Y001575D01*
X006720Y001850D01*
X006260Y002310D01*
X006260Y003120D01*
X006740Y003600D01*
X008950Y003600D01*
X009350Y004000D01*
X009350Y004375D01*
X009275Y004450D01*
X009038Y004598D02*
X006225Y004598D01*
X006225Y004696D02*
X009150Y004696D01*
X009300Y004795D02*
X006225Y004795D01*
X006308Y004893D02*
X009326Y004893D01*
X009403Y004992D02*
X006340Y004992D01*
X006336Y005090D02*
X009809Y005090D01*
X009747Y004992D02*
X009907Y004992D01*
X009980Y004893D02*
X009824Y004893D01*
X009850Y004795D02*
X009980Y004795D01*
X009980Y004696D02*
X009840Y004696D01*
X009786Y004598D02*
X009980Y004598D01*
X009980Y004499D02*
X009747Y004499D01*
X009747Y004401D02*
X009980Y004401D01*
X009980Y004302D02*
X009747Y004302D01*
X009747Y004204D02*
X009980Y004204D01*
X009896Y004105D02*
X009747Y004105D01*
X009747Y004007D02*
X009865Y004007D01*
X009870Y003908D02*
X009747Y003908D01*
X009686Y003810D02*
X009917Y003810D01*
X010059Y003711D02*
X009587Y003711D01*
X009489Y003613D02*
X011175Y003613D01*
X011175Y003711D02*
X010221Y003711D01*
X010363Y003810D02*
X011175Y003810D01*
X011175Y003908D02*
X010410Y003908D01*
X010415Y004007D02*
X011175Y004007D01*
X011175Y004105D02*
X010384Y004105D01*
X010300Y004204D02*
X011175Y004204D01*
X011155Y004302D02*
X010300Y004302D01*
X010300Y004401D02*
X011057Y004401D01*
X010958Y004499D02*
X010300Y004499D01*
X010300Y004598D02*
X010860Y004598D01*
X010761Y004696D02*
X010300Y004696D01*
X010300Y004795D02*
X010663Y004795D01*
X010564Y004893D02*
X010300Y004893D01*
X010300Y004992D02*
X010466Y004992D01*
X010367Y005090D02*
X010261Y005090D01*
X010269Y005189D02*
X010163Y005189D01*
X010170Y005287D02*
X010064Y005287D01*
X010072Y005386D02*
X009966Y005386D01*
X009973Y005484D02*
X009867Y005484D01*
X009875Y005583D02*
X009769Y005583D01*
X009776Y005681D02*
X009670Y005681D01*
X009678Y005780D02*
X009572Y005780D01*
X009325Y005800D02*
X010140Y004985D01*
X010140Y003975D01*
X009587Y003937D02*
X009587Y004763D01*
X009575Y004775D01*
X009000Y004499D02*
X008517Y004499D01*
X008367Y004423D02*
X008595Y004195D01*
X008778Y004401D02*
X009000Y004401D01*
X009025Y004125D02*
X008700Y003800D01*
X006660Y003800D01*
X006069Y003209D01*
X006069Y001881D01*
X006315Y001675D01*
X006558Y001544D02*
X006800Y001544D01*
X006898Y001446D02*
X006474Y001446D01*
X006156Y001446D02*
X006049Y001446D01*
X005865Y001650D02*
X005870Y001695D01*
X005870Y003290D01*
X006580Y004000D01*
X007950Y004000D01*
X008120Y004120D01*
X008367Y004423D02*
X007848Y004423D01*
X007625Y004200D01*
X006480Y004200D01*
X005650Y003370D01*
X005650Y002000D01*
X005440Y001790D01*
X005440Y001650D01*
X005624Y001446D02*
X005681Y001446D01*
X005256Y001446D02*
X005199Y001446D01*
X005015Y001650D02*
X004975Y001710D01*
X005450Y002185D01*
X005450Y003500D01*
X006065Y004115D01*
X006065Y005025D01*
X006290Y005189D02*
X009710Y005189D01*
X009612Y005287D02*
X006151Y005287D01*
X005979Y005287D02*
X005661Y005287D01*
X005687Y005386D02*
X009513Y005386D01*
X009415Y005484D02*
X005785Y005484D01*
X005884Y005583D02*
X009316Y005583D01*
X009325Y005800D02*
X005875Y005800D01*
X005250Y005175D01*
X005250Y003915D01*
X005050Y003715D01*
X005050Y002690D01*
X004130Y001770D01*
X004130Y001645D01*
X003855Y001643D02*
X001350Y001643D01*
X001350Y001741D02*
X003872Y001741D01*
X003936Y001840D02*
X001350Y001840D01*
X001350Y001938D02*
X004072Y001938D01*
X004170Y002037D02*
X001350Y002037D01*
X001350Y002135D02*
X004269Y002135D01*
X004367Y002234D02*
X001350Y002234D01*
X001350Y002332D02*
X004466Y002332D01*
X004564Y002431D02*
X001350Y002431D01*
X001350Y002529D02*
X004663Y002529D01*
X004761Y002628D02*
X001350Y002628D01*
X001350Y002726D02*
X004860Y002726D01*
X004890Y002825D02*
X001350Y002825D01*
X001350Y002923D02*
X004890Y002923D01*
X004890Y003022D02*
X001350Y003022D01*
X001350Y003120D02*
X004890Y003120D01*
X004890Y003219D02*
X001350Y003219D01*
X001350Y003317D02*
X004890Y003317D01*
X004890Y003416D02*
X001350Y003416D01*
X001350Y003514D02*
X004890Y003514D01*
X004890Y003613D02*
X001350Y003613D01*
X001350Y003711D02*
X004890Y003711D01*
X004918Y003810D02*
X001350Y003810D01*
X001350Y003908D02*
X005017Y003908D01*
X005090Y004007D02*
X001350Y004007D01*
X001350Y004105D02*
X005090Y004105D01*
X005090Y004204D02*
X004615Y004204D01*
X004465Y004204D02*
X001350Y004204D01*
X001350Y004302D02*
X004319Y004302D01*
X004540Y004470D02*
X003430Y004470D01*
X002875Y005025D01*
X002875Y005875D01*
X002600Y005878D02*
X001350Y005878D01*
X001350Y005780D02*
X002617Y005780D01*
X002680Y005681D02*
X001350Y005681D01*
X001350Y005583D02*
X002715Y005583D01*
X002715Y005484D02*
X001350Y005484D01*
X001350Y005386D02*
X002715Y005386D01*
X002715Y005287D02*
X001350Y005287D01*
X001350Y005189D02*
X002715Y005189D01*
X002715Y005090D02*
X001350Y005090D01*
X001350Y004992D02*
X002715Y004992D01*
X002781Y004893D02*
X001350Y004893D01*
X001350Y004795D02*
X002879Y004795D01*
X002978Y004696D02*
X001350Y004696D01*
X001350Y004598D02*
X003076Y004598D01*
X003175Y004499D02*
X001350Y004499D01*
X001350Y004401D02*
X003273Y004401D01*
X003430Y004696D02*
X004005Y004696D01*
X003936Y004795D02*
X003332Y004795D01*
X003233Y004893D02*
X003915Y004893D01*
X003930Y004992D02*
X003135Y004992D01*
X003036Y005090D02*
X003991Y005090D01*
X004190Y004900D02*
X004525Y004900D01*
X004815Y005200D01*
X004540Y005189D02*
X003035Y005189D01*
X003035Y005287D02*
X004553Y005287D01*
X004612Y005386D02*
X003035Y005386D01*
X003035Y005484D02*
X005333Y005484D01*
X005431Y005583D02*
X003035Y005583D01*
X003070Y005681D02*
X005530Y005681D01*
X005628Y005780D02*
X003147Y005780D01*
X002686Y006075D02*
X001350Y006075D01*
X001350Y005977D02*
X002619Y005977D01*
X002806Y006174D02*
X001350Y006174D01*
X001350Y006272D02*
X002904Y006272D01*
X003058Y006371D02*
X001350Y006371D01*
X004389Y005090D02*
X004486Y005090D01*
X004741Y004893D02*
X005090Y004893D01*
X005090Y004795D02*
X004646Y004795D01*
X004703Y004696D02*
X005090Y004696D01*
X005090Y004598D02*
X004785Y004598D01*
X004815Y004499D02*
X005090Y004499D01*
X005090Y004401D02*
X004809Y004401D01*
X004761Y004302D02*
X005090Y004302D01*
X005575Y003925D02*
X005575Y005025D01*
X005800Y005189D02*
X005840Y005189D01*
X005234Y005386D02*
X005018Y005386D01*
X005077Y005287D02*
X005136Y005287D01*
X005090Y005189D02*
X005090Y005189D01*
X005090Y005090D02*
X005067Y005090D01*
X005090Y004992D02*
X004995Y004992D01*
X006225Y004499D02*
X007698Y004499D01*
X007599Y004401D02*
X006225Y004401D01*
X006225Y004302D02*
X006356Y004302D01*
X006258Y004204D02*
X006225Y004204D01*
X005575Y003925D02*
X005250Y003600D01*
X005250Y002400D01*
X004570Y001720D01*
X004565Y001650D01*
X004749Y001446D02*
X004831Y001446D01*
X004381Y001446D02*
X004319Y001446D01*
X003941Y001446D02*
X001350Y001446D01*
X001350Y001544D02*
X003874Y001544D01*
X006420Y002431D02*
X006487Y002431D01*
X006464Y002332D02*
X007371Y002332D01*
X007397Y002234D02*
X006563Y002234D01*
X006661Y002135D02*
X007340Y002135D01*
X007320Y002037D02*
X006922Y002037D01*
X006981Y001938D02*
X007327Y001938D01*
X007368Y001840D02*
X006995Y001840D01*
X007055Y001741D02*
X007462Y001741D01*
X008070Y001446D02*
X013700Y001446D01*
X013700Y001544D02*
X008168Y001544D01*
X008133Y001509D02*
X008133Y001509D01*
X008650Y001650D02*
X008650Y002020D01*
X008650Y001650D01*
X008650Y001741D02*
X008650Y001741D01*
X008650Y001840D02*
X008650Y001840D01*
X008650Y001938D02*
X008650Y001938D01*
X008650Y002020D02*
X008650Y002020D01*
X009003Y002135D02*
X009956Y002135D01*
X009895Y002234D02*
X008959Y002234D01*
X008980Y002332D02*
X009895Y002332D01*
X009895Y002431D02*
X008980Y002431D01*
X008980Y002529D02*
X009895Y002529D01*
X009895Y002628D02*
X008980Y002628D01*
X008980Y002726D02*
X009895Y002726D01*
X009895Y002825D02*
X008941Y002825D01*
X008359Y002825D02*
X008277Y002825D01*
X008023Y002825D02*
X007777Y002825D01*
X007523Y002825D02*
X006851Y002825D01*
X006890Y002726D02*
X007389Y002726D01*
X007337Y002628D02*
X006890Y002628D01*
X006852Y002529D02*
X007320Y002529D01*
X007330Y002431D02*
X006743Y002431D01*
X006615Y002675D02*
X006615Y003140D01*
X006875Y003400D01*
X009050Y003400D01*
X009587Y003937D01*
X009390Y003514D02*
X011175Y003514D01*
X011175Y003416D02*
X009292Y003416D01*
X009193Y003317D02*
X011175Y003317D01*
X011175Y003219D02*
X010625Y003219D01*
X010715Y003120D02*
X011175Y003120D01*
X011154Y003022D02*
X010715Y003022D01*
X010715Y002923D02*
X011055Y002923D01*
X009985Y003219D02*
X006920Y003219D01*
X006821Y003120D02*
X009895Y003120D01*
X009895Y003022D02*
X006775Y003022D01*
X006775Y002923D02*
X009895Y002923D01*
X013465Y001643D02*
X013700Y001643D01*
X013700Y001741D02*
X013598Y001741D01*
X013696Y001840D02*
X013700Y001840D01*
X013700Y006765D02*
X013350Y006765D01*
X013550Y006863D02*
X013700Y006863D01*
X013700Y006962D02*
X013648Y006962D01*
X013612Y008045D02*
X013700Y008045D01*
X013700Y008144D02*
X013499Y008144D01*
X013700Y008242D02*
X013261Y008242D01*
D15*
X010525Y003050D02*
X010085Y003050D01*
X010085Y002275D01*
X010525Y002275D01*
X010525Y003050D01*
X010525Y002894D02*
X010085Y002894D01*
X010085Y002735D02*
X010525Y002735D01*
X010525Y002577D02*
X010085Y002577D01*
X010085Y002418D02*
X010525Y002418D01*
D16*
X010300Y002650D02*
X010300Y002900D01*
X010300Y002650D02*
X011150Y002650D01*
X011435Y002935D01*
X011435Y004390D01*
X009714Y006111D01*
X003111Y006111D01*
X002875Y005875D01*
M02*
