G75*
G70*
%OFA0B0*%
%FSLAX24Y24*%
%IPPOS*%
%LPD*%
%AMOC8*
5,1,8,0,0,1.08239X$1,22.5*
%
%ADD10C,0.0080*%
%ADD11C,0.0050*%
%ADD12C,0.0030*%
%ADD13C,0.0100*%
%ADD14R,0.0276X0.0110*%
%ADD15R,0.0110X0.0276*%
%ADD16C,0.0075*%
D10*
X001149Y003561D02*
X001149Y006239D01*
X002212Y006239D02*
X002842Y006239D01*
X002842Y005766D01*
X002291Y005766D01*
X002291Y004034D01*
X002842Y004034D01*
X002842Y003561D01*
X002212Y003561D01*
X003158Y005646D02*
X003493Y005646D01*
X003768Y005646D02*
X004221Y005646D01*
X004221Y006354D01*
X003768Y006354D01*
X003493Y006354D02*
X003158Y006354D01*
X003079Y006276D01*
X003079Y005724D01*
X003158Y005646D01*
X003686Y006479D02*
X003686Y006932D01*
X003530Y007081D02*
X003530Y007419D01*
X003686Y007542D02*
X003686Y007207D01*
X003686Y007542D02*
X003764Y007621D01*
X004316Y007621D01*
X004394Y007542D01*
X004394Y007207D01*
X004394Y006932D02*
X004394Y006479D01*
X003686Y006479D01*
X002410Y007081D02*
X002410Y007419D01*
X002864Y007569D02*
X003076Y007569D01*
X005453Y005880D02*
X005545Y005758D01*
X005726Y005758D01*
X005631Y005880D02*
X005555Y005764D01*
X005545Y005758D02*
X005364Y005758D01*
X005914Y005758D02*
X006095Y005758D01*
X006003Y005880D01*
X006105Y005764D02*
X006181Y005880D01*
X006095Y005758D02*
X006276Y005758D01*
X006639Y007470D02*
X006715Y007586D01*
X006725Y007592D02*
X006817Y007470D01*
X006906Y007592D02*
X006725Y007592D01*
X006544Y007592D01*
D11*
X002726Y001390D02*
X002214Y001390D01*
X001486Y001902D02*
X001486Y002138D01*
X002214Y002650D02*
X002726Y002650D01*
X003454Y002138D02*
X003454Y001902D01*
X004442Y003759D02*
X004444Y003771D01*
X004449Y003782D01*
X004458Y003791D01*
X004469Y003796D01*
X004481Y003798D01*
X004493Y003796D01*
X004504Y003791D01*
X004513Y003782D01*
X004518Y003771D01*
X004520Y003759D01*
X004518Y003747D01*
X004513Y003736D01*
X004504Y003727D01*
X004493Y003722D01*
X004481Y003720D01*
X004469Y003722D01*
X004458Y003727D01*
X004449Y003736D01*
X004444Y003747D01*
X004442Y003759D01*
X007400Y002770D02*
X007400Y001770D01*
X008900Y001770D01*
X008900Y002770D01*
X007400Y002770D01*
X011630Y002340D02*
X011630Y007460D01*
X011635Y007485D02*
X017140Y007485D01*
X017140Y007450D02*
X017140Y002350D01*
X017140Y002315D02*
X011635Y002315D01*
X014090Y002900D02*
X016590Y003150D01*
X016590Y004400D01*
X014090Y004650D01*
X014090Y005150D02*
X016590Y005400D01*
X016590Y006650D01*
X014090Y006900D01*
X010005Y007536D02*
X010005Y007654D01*
X009493Y008087D02*
X009257Y008087D01*
X008745Y007654D02*
X008745Y007536D01*
X009257Y007103D02*
X009493Y007103D01*
X007652Y006484D02*
X007654Y006496D01*
X007659Y006507D01*
X007668Y006516D01*
X007679Y006521D01*
X007691Y006523D01*
X007703Y006521D01*
X007714Y006516D01*
X007723Y006507D01*
X007728Y006496D01*
X007730Y006484D01*
X007728Y006472D01*
X007723Y006461D01*
X007714Y006452D01*
X007703Y006447D01*
X007691Y006445D01*
X007679Y006447D01*
X007668Y006452D01*
X007659Y006461D01*
X007654Y006472D01*
X007652Y006484D01*
X004322Y007102D02*
X003758Y007102D01*
X003598Y006282D02*
X003598Y005718D01*
D12*
X003965Y005313D02*
X004070Y005313D01*
X004105Y005278D01*
X004105Y005208D01*
X004070Y005173D01*
X003965Y005173D01*
X004035Y005173D02*
X004105Y005103D01*
X004186Y005208D02*
X004326Y005208D01*
X004291Y005103D02*
X004291Y005313D01*
X004186Y005208D01*
X003965Y005103D02*
X003965Y005313D01*
X004318Y005685D02*
X004353Y005650D01*
X004423Y005650D01*
X004458Y005685D01*
X004539Y005650D02*
X004679Y005650D01*
X004609Y005650D02*
X004609Y005860D01*
X004539Y005790D01*
X004458Y005825D02*
X004423Y005860D01*
X004353Y005860D01*
X004318Y005825D01*
X004318Y005685D01*
X004925Y006060D02*
X005030Y006060D01*
X005065Y006095D01*
X005065Y006235D01*
X005030Y006270D01*
X004925Y006270D01*
X004925Y006060D01*
X005146Y006095D02*
X005181Y006060D01*
X005251Y006060D01*
X005286Y006095D01*
X005286Y006130D01*
X005251Y006165D01*
X005216Y006165D01*
X005251Y006165D02*
X005286Y006200D01*
X005286Y006235D01*
X005251Y006270D01*
X005181Y006270D01*
X005146Y006235D01*
X004916Y006500D02*
X004916Y006710D01*
X004811Y006605D01*
X004951Y006605D01*
X004730Y006535D02*
X004695Y006500D01*
X004625Y006500D01*
X004590Y006535D01*
X004590Y006675D01*
X004625Y006710D01*
X004695Y006710D01*
X004730Y006675D01*
X004985Y007065D02*
X004985Y007275D01*
X005090Y007275D01*
X005125Y007240D01*
X005125Y007170D01*
X005090Y007135D01*
X004985Y007135D01*
X005055Y007135D02*
X005125Y007065D01*
X005206Y007065D02*
X005346Y007065D01*
X005276Y007065D02*
X005276Y007275D01*
X005206Y007205D01*
X006300Y006770D02*
X006405Y006770D01*
X006440Y006735D01*
X006440Y006665D01*
X006405Y006630D01*
X006300Y006630D01*
X006300Y006560D02*
X006300Y006770D01*
X006521Y006735D02*
X006556Y006770D01*
X006626Y006770D01*
X006661Y006735D01*
X006661Y006700D01*
X006521Y006560D01*
X006661Y006560D01*
X006440Y006560D02*
X006370Y006630D01*
X006360Y006275D02*
X006465Y006275D01*
X006500Y006240D01*
X006500Y006100D01*
X006465Y006065D01*
X006360Y006065D01*
X006360Y006275D01*
X006581Y006240D02*
X006616Y006275D01*
X006686Y006275D01*
X006721Y006240D01*
X006721Y006205D01*
X006581Y006065D01*
X006721Y006065D01*
X007207Y006831D02*
X007277Y006831D01*
X007312Y006866D01*
X007312Y007041D01*
X007393Y007006D02*
X007428Y007041D01*
X007498Y007041D01*
X007533Y007006D01*
X007533Y006971D01*
X007498Y006936D01*
X007533Y006901D01*
X007533Y006866D01*
X007498Y006831D01*
X007428Y006831D01*
X007393Y006866D01*
X007463Y006936D02*
X007498Y006936D01*
X007207Y006831D02*
X007172Y006866D01*
X007172Y007041D01*
X007975Y007500D02*
X008010Y007465D01*
X008080Y007465D01*
X008115Y007500D01*
X008196Y007465D02*
X008336Y007465D01*
X008266Y007465D02*
X008266Y007675D01*
X008196Y007605D01*
X008115Y007640D02*
X008080Y007675D01*
X008010Y007675D01*
X007975Y007640D01*
X007975Y007500D01*
X007781Y007705D02*
X007711Y007705D01*
X007676Y007740D01*
X007676Y007810D02*
X007746Y007845D01*
X007781Y007845D01*
X007816Y007810D01*
X007816Y007740D01*
X007781Y007705D01*
X007676Y007810D02*
X007676Y007915D01*
X007816Y007915D01*
X007595Y007880D02*
X007595Y007810D01*
X007560Y007775D01*
X007455Y007775D01*
X007455Y007705D02*
X007455Y007915D01*
X007560Y007915D01*
X007595Y007880D01*
X007525Y007775D02*
X007595Y007705D01*
X006936Y008140D02*
X006796Y008140D01*
X006866Y008140D02*
X006866Y008350D01*
X006796Y008280D01*
X006715Y008315D02*
X006715Y008175D01*
X006680Y008140D01*
X006575Y008140D01*
X006575Y008350D01*
X006680Y008350D01*
X006715Y008315D01*
X008417Y007640D02*
X008417Y007500D01*
X008557Y007640D01*
X008557Y007500D01*
X008522Y007465D01*
X008452Y007465D01*
X008417Y007500D01*
X008417Y007640D02*
X008452Y007675D01*
X008522Y007675D01*
X008557Y007640D01*
X010181Y007390D02*
X010181Y007355D01*
X010251Y007285D01*
X010251Y007180D01*
X010251Y007285D02*
X010321Y007355D01*
X010321Y007390D01*
X010402Y007355D02*
X010437Y007390D01*
X010507Y007390D01*
X010542Y007355D01*
X010542Y007320D01*
X010402Y007180D01*
X010542Y007180D01*
X010401Y006745D02*
X010331Y006745D01*
X010296Y006710D01*
X010296Y006675D01*
X010331Y006640D01*
X010436Y006640D01*
X010436Y006570D02*
X010436Y006710D01*
X010401Y006745D01*
X010436Y006570D02*
X010401Y006535D01*
X010331Y006535D01*
X010296Y006570D01*
X010215Y006570D02*
X010180Y006535D01*
X010110Y006535D01*
X010075Y006570D01*
X010075Y006710D01*
X010110Y006745D01*
X010180Y006745D01*
X010215Y006710D01*
X010302Y005785D02*
X010267Y005750D01*
X010302Y005785D02*
X010372Y005785D01*
X010407Y005750D01*
X010407Y005715D01*
X010267Y005575D01*
X010407Y005575D01*
X010186Y005575D02*
X010046Y005575D01*
X010116Y005575D02*
X010116Y005785D01*
X010046Y005715D01*
X009965Y005750D02*
X009930Y005785D01*
X009860Y005785D01*
X009825Y005750D01*
X009825Y005610D01*
X009860Y005575D01*
X009930Y005575D01*
X009965Y005610D01*
X009980Y005225D02*
X010015Y005190D01*
X010015Y005120D01*
X009980Y005085D01*
X009875Y005085D01*
X009875Y005015D02*
X009875Y005225D01*
X009980Y005225D01*
X010096Y005225D02*
X010236Y005225D01*
X010236Y005190D01*
X010096Y005050D01*
X010096Y005015D01*
X010015Y005015D02*
X009945Y005085D01*
X009975Y004900D02*
X010010Y004865D01*
X010010Y004795D01*
X009975Y004760D01*
X009870Y004760D01*
X009870Y004690D02*
X009870Y004900D01*
X009975Y004900D01*
X010091Y004865D02*
X010091Y004830D01*
X010126Y004795D01*
X010196Y004795D01*
X010231Y004760D01*
X010231Y004725D01*
X010196Y004690D01*
X010126Y004690D01*
X010091Y004725D01*
X010091Y004760D01*
X010126Y004795D01*
X010196Y004795D02*
X010231Y004830D01*
X010231Y004865D01*
X010196Y004900D01*
X010126Y004900D01*
X010091Y004865D01*
X009940Y004760D02*
X010010Y004690D01*
X010425Y004120D02*
X010530Y004120D01*
X010565Y004085D01*
X010565Y004015D01*
X010530Y003980D01*
X010425Y003980D01*
X010425Y003910D02*
X010425Y004120D01*
X010646Y004050D02*
X010716Y004120D01*
X010716Y003910D01*
X010646Y003910D02*
X010786Y003910D01*
X010867Y003945D02*
X011007Y004085D01*
X011007Y003945D01*
X010972Y003910D01*
X010902Y003910D01*
X010867Y003945D01*
X010867Y004085D01*
X010902Y004120D01*
X010972Y004120D01*
X011007Y004085D01*
X010565Y003910D02*
X010495Y003980D01*
X009282Y003485D02*
X009142Y003485D01*
X009212Y003485D02*
X009212Y003695D01*
X009142Y003625D01*
X009061Y003485D02*
X008921Y003485D01*
X008991Y003485D02*
X008991Y003695D01*
X008921Y003625D01*
X008840Y003590D02*
X008805Y003555D01*
X008700Y003555D01*
X008700Y003485D02*
X008700Y003695D01*
X008805Y003695D01*
X008840Y003660D01*
X008840Y003590D01*
X008770Y003555D02*
X008840Y003485D01*
X007866Y003945D02*
X007866Y004085D01*
X007831Y004120D01*
X007761Y004120D01*
X007726Y004085D01*
X007726Y004050D01*
X007761Y004015D01*
X007866Y004015D01*
X007866Y003945D02*
X007831Y003910D01*
X007761Y003910D01*
X007726Y003945D01*
X007645Y003910D02*
X007575Y003980D01*
X007610Y003980D02*
X007505Y003980D01*
X007505Y003910D02*
X007505Y004120D01*
X007610Y004120D01*
X007645Y004085D01*
X007645Y004015D01*
X007610Y003980D01*
X007106Y003825D02*
X007036Y003790D01*
X006966Y003720D01*
X007071Y003720D01*
X007106Y003685D01*
X007106Y003650D01*
X007071Y003615D01*
X007001Y003615D01*
X006966Y003650D01*
X006966Y003720D01*
X006885Y003720D02*
X006885Y003790D01*
X006850Y003825D01*
X006745Y003825D01*
X006745Y003615D01*
X006745Y003685D02*
X006850Y003685D01*
X006885Y003720D01*
X006815Y003685D02*
X006885Y003615D01*
X006506Y004250D02*
X006436Y004250D01*
X006401Y004285D01*
X006320Y004285D02*
X006285Y004250D01*
X006215Y004250D01*
X006180Y004285D01*
X006180Y004425D01*
X006215Y004460D01*
X006285Y004460D01*
X006320Y004425D01*
X006401Y004425D02*
X006436Y004460D01*
X006506Y004460D01*
X006541Y004425D01*
X006541Y004390D01*
X006506Y004355D01*
X006541Y004320D01*
X006541Y004285D01*
X006506Y004250D01*
X006506Y004355D02*
X006471Y004355D01*
X004316Y004355D02*
X004316Y004285D01*
X004281Y004250D01*
X004211Y004250D01*
X004176Y004285D01*
X004176Y004355D02*
X004246Y004390D01*
X004281Y004390D01*
X004316Y004355D01*
X004316Y004460D02*
X004176Y004460D01*
X004176Y004355D01*
X004095Y004285D02*
X004060Y004250D01*
X003990Y004250D01*
X003955Y004285D01*
X003955Y004425D01*
X003990Y004460D01*
X004060Y004460D01*
X004095Y004425D01*
X004095Y004503D02*
X004025Y004573D01*
X004060Y004573D02*
X003955Y004573D01*
X003955Y004503D02*
X003955Y004713D01*
X004060Y004713D01*
X004095Y004678D01*
X004095Y004608D01*
X004060Y004573D01*
X004176Y004538D02*
X004211Y004503D01*
X004281Y004503D01*
X004316Y004538D01*
X004316Y004573D01*
X004281Y004608D01*
X004246Y004608D01*
X004281Y004608D02*
X004316Y004643D01*
X004316Y004678D01*
X004281Y004713D01*
X004211Y004713D01*
X004176Y004678D01*
X003291Y003745D02*
X003151Y003745D01*
X003070Y003710D02*
X003035Y003745D01*
X002965Y003745D01*
X002930Y003710D01*
X002930Y003570D01*
X002965Y003535D01*
X003035Y003535D01*
X003070Y003570D01*
X003151Y003570D02*
X003151Y003535D01*
X003151Y003570D02*
X003291Y003710D01*
X003291Y003745D01*
X003610Y003590D02*
X003610Y003450D01*
X003645Y003415D01*
X003715Y003415D01*
X003750Y003450D01*
X003831Y003450D02*
X003866Y003415D01*
X003936Y003415D01*
X003971Y003450D01*
X003971Y003485D01*
X003936Y003520D01*
X003866Y003520D01*
X003831Y003555D01*
X003831Y003590D01*
X003866Y003625D01*
X003936Y003625D01*
X003971Y003590D01*
X003971Y003555D01*
X003936Y003520D01*
X003866Y003520D02*
X003831Y003485D01*
X003831Y003450D01*
X003750Y003590D02*
X003715Y003625D01*
X003645Y003625D01*
X003610Y003590D01*
X003231Y003330D02*
X003161Y003295D01*
X003091Y003225D01*
X003196Y003225D01*
X003231Y003190D01*
X003231Y003155D01*
X003196Y003120D01*
X003126Y003120D01*
X003091Y003155D01*
X003091Y003225D01*
X003010Y003155D02*
X002975Y003120D01*
X002905Y003120D01*
X002870Y003155D01*
X002870Y003295D01*
X002905Y003330D01*
X002975Y003330D01*
X003010Y003295D01*
X003661Y002145D02*
X003661Y002110D01*
X003731Y002040D01*
X003731Y001935D01*
X003731Y002040D02*
X003801Y002110D01*
X003801Y002145D01*
X003882Y002075D02*
X003952Y002145D01*
X003952Y001935D01*
X003882Y001935D02*
X004022Y001935D01*
X006132Y002081D02*
X006167Y002046D01*
X006237Y002046D01*
X006272Y002081D01*
X006272Y002256D01*
X006353Y002186D02*
X006423Y002256D01*
X006423Y002046D01*
X006353Y002046D02*
X006493Y002046D01*
X006132Y002081D02*
X006132Y002256D01*
X008423Y001480D02*
X008458Y001445D01*
X008493Y001445D01*
X008528Y001480D01*
X008528Y001655D01*
X008493Y001655D02*
X008563Y001655D01*
X008644Y001620D02*
X008679Y001655D01*
X008749Y001655D01*
X008784Y001620D01*
X008784Y001585D01*
X008749Y001550D01*
X008784Y001515D01*
X008784Y001480D01*
X008749Y001445D01*
X008679Y001445D01*
X008644Y001480D01*
X008714Y001550D02*
X008749Y001550D01*
X009490Y001690D02*
X009490Y001900D01*
X009630Y001900D01*
X009711Y001830D02*
X009781Y001900D01*
X009781Y001690D01*
X009711Y001690D02*
X009851Y001690D01*
X009560Y001795D02*
X009490Y001795D01*
X011790Y002050D02*
X011825Y002015D01*
X011860Y002015D01*
X011895Y002050D01*
X011895Y002225D01*
X011860Y002225D02*
X011930Y002225D01*
X012011Y002190D02*
X012046Y002225D01*
X012116Y002225D01*
X012151Y002190D01*
X012151Y002155D01*
X012011Y002015D01*
X012151Y002015D01*
X003949Y007715D02*
X003809Y007715D01*
X003949Y007855D01*
X003949Y007890D01*
X003914Y007925D01*
X003844Y007925D01*
X003809Y007890D01*
X003728Y007890D02*
X003693Y007925D01*
X003623Y007925D01*
X003588Y007890D01*
X003588Y007750D01*
X003623Y007715D01*
X003693Y007715D01*
X003728Y007750D01*
X002406Y007790D02*
X002266Y007790D01*
X002371Y007895D01*
X002371Y007685D01*
X002185Y007720D02*
X002185Y007895D01*
X002045Y007895D02*
X002045Y007720D01*
X002080Y007685D01*
X002150Y007685D01*
X002185Y007720D01*
X001776Y007257D02*
X001776Y007047D01*
X001706Y007047D02*
X001846Y007047D01*
X001590Y007082D02*
X001590Y007257D01*
X001555Y007257D02*
X001625Y007257D01*
X001706Y007187D02*
X001776Y007257D01*
X001590Y007082D02*
X001555Y007047D01*
X001520Y007047D01*
X001485Y007082D01*
X010985Y007860D02*
X011020Y007825D01*
X011090Y007825D01*
X011125Y007860D01*
X011206Y007825D02*
X011346Y007825D01*
X011276Y007825D02*
X011276Y008035D01*
X011206Y007965D01*
X011125Y008000D02*
X011090Y008035D01*
X011020Y008035D01*
X010985Y008000D01*
X010985Y007860D01*
X011427Y007825D02*
X011567Y007825D01*
X011497Y007825D02*
X011497Y008035D01*
X011427Y007965D01*
D13*
X010520Y008009D02*
X010520Y007911D01*
X008230Y007294D02*
X008230Y007196D01*
X010130Y006379D02*
X010130Y006281D01*
X010130Y006059D02*
X010130Y005961D01*
X005765Y004459D02*
X005765Y004361D01*
X003550Y004401D02*
X003550Y004499D01*
X002519Y003110D02*
X002421Y003110D01*
X003150Y002979D02*
X003150Y002881D01*
X003771Y002990D02*
X003869Y002990D01*
X004571Y007140D02*
X004669Y007140D01*
D14*
X005545Y006900D03*
X006095Y006900D03*
X007250Y007525D03*
X008500Y003625D03*
X006550Y003460D03*
D15*
X007440Y004350D03*
X010250Y004350D03*
X010675Y004730D03*
X010675Y005070D03*
X003550Y005198D03*
X003550Y004858D03*
D16*
X004363Y004034D02*
X004206Y003877D01*
X006017Y004034D02*
X006174Y004034D01*
X006174Y003877D01*
X007416Y004791D02*
X007416Y004948D01*
X007416Y004791D02*
X007573Y004791D01*
X009227Y004791D02*
X009384Y004791D01*
X009384Y004948D01*
X009384Y006602D02*
X009384Y006759D01*
X009227Y006759D01*
X007573Y006759D02*
X007416Y006602D01*
X006174Y002223D02*
X006174Y002066D01*
X006017Y002066D01*
X004363Y002066D02*
X004206Y002066D01*
X004206Y002223D01*
M02*
