G75*
G70*
%OFA0B0*%
%FSLAX24Y24*%
%IPPOS*%
%LPD*%
%AMOC8*
5,1,8,0,0,1.08239X$1,22.5*
%
%ADD10C,0.1310*%
%ADD11C,0.0436*%
%ADD12R,0.0436X0.0436*%
%ADD13C,0.0310*%
%ADD14C,0.0100*%
%ADD15C,0.0160*%
%ADD16C,0.0300*%
D10*
X013090Y002315D03*
X013090Y007485D03*
D11*
X008150Y002520D03*
X007650Y002520D03*
X007650Y002020D03*
X008150Y002020D03*
X008650Y002020D03*
D12*
X008650Y002520D03*
D13*
X008490Y003020D03*
X007025Y003075D03*
X006615Y002675D03*
X006720Y001850D03*
X006315Y001675D03*
X005865Y001650D03*
X005440Y001650D03*
X005015Y001650D03*
X004565Y001650D03*
X004130Y001645D03*
X003430Y003320D03*
X003880Y004070D03*
X004540Y004470D03*
X004190Y004900D03*
X004815Y005200D03*
X005575Y005025D03*
X006065Y005025D03*
X006855Y004510D03*
X008120Y004120D03*
X008595Y004195D03*
X009025Y004125D03*
X009275Y004450D03*
X009575Y004775D03*
X010850Y004350D03*
X010140Y003975D03*
X010300Y002650D03*
X010300Y002150D03*
X002875Y005875D03*
X005475Y007515D03*
X006050Y007515D03*
X007350Y008150D03*
X009755Y006710D03*
X006935Y006540D03*
X004620Y007750D03*
X004220Y007850D03*
D14*
X001350Y008450D02*
X001350Y001350D01*
X013700Y001350D01*
X013700Y001843D01*
X013523Y001666D01*
X013242Y001550D01*
X012938Y001550D01*
X012657Y001666D01*
X012441Y001882D01*
X012325Y002163D01*
X012325Y002467D01*
X012441Y002748D01*
X012657Y002964D01*
X012938Y003080D01*
X013242Y003080D01*
X013523Y002964D01*
X013700Y002787D01*
X013700Y007013D01*
X013523Y006836D01*
X013242Y006720D01*
X012938Y006720D01*
X012657Y006836D01*
X012441Y007052D01*
X012325Y007333D01*
X012325Y007637D01*
X012441Y007918D01*
X012657Y008134D01*
X012938Y008250D01*
X013242Y008250D01*
X013523Y008134D01*
X013700Y007957D01*
X013700Y008450D01*
X001350Y008450D01*
X001350Y008439D02*
X013700Y008439D01*
X013700Y008341D02*
X001350Y008341D01*
X001350Y008242D02*
X012919Y008242D01*
X012681Y008144D02*
X001350Y008144D01*
X001350Y008045D02*
X012568Y008045D01*
X012470Y007947D02*
X001350Y007947D01*
X001350Y007848D02*
X012412Y007848D01*
X012372Y007750D02*
X001350Y007750D01*
X001350Y007651D02*
X012331Y007651D01*
X012325Y007553D02*
X001350Y007553D01*
X001350Y007454D02*
X012325Y007454D01*
X012325Y007356D02*
X001350Y007356D01*
X001350Y007257D02*
X012356Y007257D01*
X012397Y007159D02*
X001350Y007159D01*
X001350Y007060D02*
X012438Y007060D01*
X012532Y006962D02*
X001350Y006962D01*
X001350Y006863D02*
X012630Y006863D01*
X012830Y006765D02*
X001350Y006765D01*
X001350Y006666D02*
X013700Y006666D01*
X013700Y006568D02*
X001350Y006568D01*
X001350Y006469D02*
X013700Y006469D01*
X013700Y006371D02*
X009767Y006371D01*
X009765Y006371D02*
X003060Y006371D01*
X002964Y006332D01*
X002737Y006105D01*
X002725Y006100D01*
X002650Y006025D01*
X002610Y005928D01*
X002610Y005822D01*
X002650Y005725D01*
X002715Y005660D01*
X002715Y004959D01*
X002809Y004865D01*
X003270Y004404D01*
X003364Y004310D01*
X004325Y004310D01*
X004390Y004245D01*
X004487Y004205D01*
X004593Y004205D01*
X004690Y004245D01*
X004765Y004320D01*
X004805Y004417D01*
X004805Y004523D01*
X004765Y004620D01*
X004690Y004695D01*
X004593Y004735D01*
X004487Y004735D01*
X004390Y004695D01*
X004325Y004630D01*
X003496Y004630D01*
X003035Y005091D01*
X003035Y005660D01*
X003100Y005725D01*
X003105Y005737D01*
X003219Y005851D01*
X005700Y005851D01*
X005090Y005241D01*
X005090Y003981D01*
X004890Y003781D01*
X004890Y002756D01*
X004020Y001886D01*
X003980Y001870D01*
X003905Y001795D01*
X003865Y001698D01*
X003865Y001592D01*
X003905Y001495D01*
X003980Y001420D01*
X004077Y001380D01*
X004183Y001380D01*
X004280Y001420D01*
X004350Y001490D01*
X004415Y001425D01*
X004512Y001385D01*
X004618Y001385D01*
X004715Y001425D01*
X004790Y001500D01*
X004865Y001425D01*
X004962Y001385D01*
X005068Y001385D01*
X005165Y001425D01*
X005227Y001488D01*
X005290Y001425D01*
X005387Y001385D01*
X005493Y001385D01*
X005590Y001425D01*
X005652Y001488D01*
X005715Y001425D01*
X005812Y001385D01*
X005918Y001385D01*
X006015Y001425D01*
X006090Y001500D01*
X006097Y001518D01*
X006165Y001450D01*
X006262Y001410D01*
X006368Y001410D01*
X006465Y001450D01*
X006540Y001525D01*
X006580Y001621D01*
X006667Y001585D01*
X006759Y001585D01*
X006835Y001509D01*
X006929Y001415D01*
X008039Y001415D01*
X008133Y001509D01*
X008216Y001592D01*
X008310Y001686D01*
X008310Y001731D01*
X008336Y001742D01*
X008372Y001778D01*
X008415Y001734D01*
X008476Y001694D01*
X008543Y001666D01*
X008614Y001652D01*
X008636Y001652D01*
X008636Y002006D01*
X008664Y002006D01*
X008664Y002034D01*
X009018Y002034D01*
X009018Y002056D01*
X009004Y002127D01*
X008976Y002194D01*
X008952Y002230D01*
X008978Y002256D01*
X008978Y002784D01*
X008914Y002848D01*
X008386Y002848D01*
X008336Y002798D01*
X008215Y002848D01*
X008085Y002848D01*
X007964Y002798D01*
X007900Y002734D01*
X007836Y002798D01*
X007715Y002848D01*
X007585Y002848D01*
X007464Y002798D01*
X007372Y002706D01*
X007322Y002585D01*
X007322Y002455D01*
X007372Y002334D01*
X007436Y002270D01*
X007372Y002206D01*
X007322Y002085D01*
X007322Y001955D01*
X007372Y001834D01*
X007464Y001742D01*
X007481Y001735D01*
X007061Y001735D01*
X006985Y001811D01*
X006985Y001903D01*
X006945Y002000D01*
X006870Y002075D01*
X006773Y002115D01*
X006681Y002115D01*
X006420Y002376D01*
X006420Y002495D01*
X006465Y002450D01*
X006562Y002410D01*
X006668Y002410D01*
X006765Y002450D01*
X006840Y002525D01*
X006880Y002622D01*
X006880Y002728D01*
X006840Y002825D01*
X006775Y002890D01*
X006775Y003074D01*
X006941Y003240D01*
X009116Y003240D01*
X009654Y003777D01*
X009747Y003871D01*
X009747Y004573D01*
X009800Y004625D01*
X009840Y004722D01*
X009840Y004828D01*
X009800Y004925D01*
X009725Y005000D01*
X009628Y005040D01*
X009522Y005040D01*
X009425Y005000D01*
X009350Y004925D01*
X009310Y004828D01*
X009310Y004722D01*
X009313Y004715D01*
X009222Y004715D01*
X009125Y004675D01*
X009050Y004600D01*
X009010Y004503D01*
X009010Y004397D01*
X009013Y004390D01*
X008972Y004390D01*
X008875Y004350D01*
X008835Y004309D01*
X008820Y004345D01*
X008745Y004420D01*
X008648Y004460D01*
X008556Y004460D01*
X008434Y004583D01*
X007781Y004583D01*
X007688Y004489D01*
X007559Y004360D01*
X006414Y004360D01*
X006225Y004171D01*
X006225Y004810D01*
X006290Y004875D01*
X006330Y004972D01*
X006330Y005078D01*
X006290Y005175D01*
X006215Y005250D01*
X006118Y005290D01*
X006012Y005290D01*
X005915Y005250D01*
X005840Y005175D01*
X005820Y005126D01*
X005800Y005175D01*
X005725Y005250D01*
X005628Y005290D01*
X005591Y005290D01*
X005941Y005640D01*
X009259Y005640D01*
X009980Y004919D01*
X009980Y004190D01*
X009915Y004125D01*
X009875Y004028D01*
X009875Y003922D01*
X009915Y003825D01*
X009990Y003750D01*
X010087Y003710D01*
X010193Y003710D01*
X010290Y003750D01*
X010365Y003825D01*
X010405Y003922D01*
X010405Y004028D01*
X010365Y004125D01*
X010300Y004190D01*
X010300Y005051D01*
X010206Y005145D01*
X009500Y005851D01*
X009606Y005851D01*
X011175Y004282D01*
X011175Y002793D01*
X011042Y002660D01*
X010715Y002660D01*
X010715Y002879D01*
X010604Y002990D01*
X010006Y002990D01*
X009895Y002879D01*
X009895Y001946D01*
X010006Y001835D01*
X010604Y001835D01*
X010715Y001946D01*
X010715Y002140D01*
X011202Y002140D01*
X011297Y002180D01*
X011582Y002464D01*
X011655Y002538D01*
X011695Y002633D01*
X011695Y004442D01*
X011655Y004537D01*
X009934Y006259D01*
X009861Y006332D01*
X009765Y006371D01*
X009921Y006272D02*
X013700Y006272D01*
X013700Y006174D02*
X010019Y006174D01*
X010118Y006075D02*
X013700Y006075D01*
X013700Y005977D02*
X010216Y005977D01*
X010315Y005878D02*
X013700Y005878D01*
X013700Y005780D02*
X010413Y005780D01*
X010512Y005681D02*
X013700Y005681D01*
X013700Y005583D02*
X010610Y005583D01*
X010709Y005484D02*
X013700Y005484D01*
X013700Y005386D02*
X010807Y005386D01*
X010906Y005287D02*
X013700Y005287D01*
X013700Y005189D02*
X011004Y005189D01*
X011103Y005090D02*
X013700Y005090D01*
X013700Y004992D02*
X011201Y004992D01*
X011300Y004893D02*
X013700Y004893D01*
X013700Y004795D02*
X011398Y004795D01*
X011497Y004696D02*
X013700Y004696D01*
X013700Y004598D02*
X011595Y004598D01*
X011671Y004499D02*
X013700Y004499D01*
X013700Y004401D02*
X011695Y004401D01*
X011695Y004302D02*
X013700Y004302D01*
X013700Y004204D02*
X011695Y004204D01*
X011695Y004105D02*
X013700Y004105D01*
X013700Y004007D02*
X011695Y004007D01*
X011695Y003908D02*
X013700Y003908D01*
X013700Y003810D02*
X011695Y003810D01*
X011695Y003711D02*
X013700Y003711D01*
X013700Y003613D02*
X011695Y003613D01*
X011695Y003514D02*
X013700Y003514D01*
X013700Y003416D02*
X011695Y003416D01*
X011695Y003317D02*
X013700Y003317D01*
X013700Y003219D02*
X011695Y003219D01*
X011695Y003120D02*
X013700Y003120D01*
X013700Y003022D02*
X013383Y003022D01*
X013564Y002923D02*
X013700Y002923D01*
X013700Y002825D02*
X013662Y002825D01*
X012797Y003022D02*
X011695Y003022D01*
X011695Y002923D02*
X012616Y002923D01*
X012518Y002825D02*
X011695Y002825D01*
X011695Y002726D02*
X012432Y002726D01*
X012391Y002628D02*
X011692Y002628D01*
X011647Y002529D02*
X012351Y002529D01*
X012325Y002431D02*
X011548Y002431D01*
X011450Y002332D02*
X012325Y002332D01*
X012325Y002234D02*
X011351Y002234D01*
X010715Y002135D02*
X012337Y002135D01*
X012377Y002037D02*
X010715Y002037D01*
X010707Y001938D02*
X012418Y001938D01*
X012484Y001840D02*
X010608Y001840D01*
X010002Y001840D02*
X008972Y001840D01*
X008976Y001846D02*
X009004Y001913D01*
X009018Y001984D01*
X009018Y002006D01*
X008664Y002006D01*
X008664Y001652D01*
X008686Y001652D01*
X008757Y001666D01*
X008824Y001694D01*
X008885Y001734D01*
X008936Y001785D01*
X008976Y001846D01*
X009009Y001938D02*
X009903Y001938D01*
X009895Y002037D02*
X009018Y002037D01*
X009001Y002135D02*
X009895Y002135D01*
X009895Y002234D02*
X008955Y002234D01*
X008978Y002332D02*
X009895Y002332D01*
X009895Y002431D02*
X008978Y002431D01*
X008978Y002529D02*
X009895Y002529D01*
X009895Y002628D02*
X008978Y002628D01*
X008978Y002726D02*
X009895Y002726D01*
X009895Y002825D02*
X008937Y002825D01*
X008363Y002825D02*
X008272Y002825D01*
X008336Y002798D02*
X008336Y002798D01*
X008028Y002825D02*
X007772Y002825D01*
X007528Y002825D02*
X006840Y002825D01*
X006880Y002726D02*
X007392Y002726D01*
X007340Y002628D02*
X006880Y002628D01*
X006841Y002529D02*
X007322Y002529D01*
X007332Y002431D02*
X006717Y002431D01*
X006513Y002431D02*
X006420Y002431D01*
X006464Y002332D02*
X007374Y002332D01*
X007400Y002234D02*
X006563Y002234D01*
X006661Y002135D02*
X007343Y002135D01*
X007322Y002037D02*
X006908Y002037D01*
X006970Y001938D02*
X007329Y001938D01*
X007370Y001840D02*
X006985Y001840D01*
X007055Y001741D02*
X007467Y001741D01*
X006995Y001575D02*
X007973Y001575D01*
X008150Y001752D01*
X008150Y002020D01*
X008333Y001741D02*
X008409Y001741D01*
X008267Y001643D02*
X012715Y001643D01*
X012582Y001741D02*
X008891Y001741D01*
X008664Y001741D02*
X008636Y001741D01*
X008636Y001840D02*
X008664Y001840D01*
X008664Y001938D02*
X008636Y001938D01*
X008168Y001544D02*
X013700Y001544D01*
X013700Y001446D02*
X008070Y001446D01*
X008133Y001509D02*
X008133Y001509D01*
X006995Y001575D02*
X006720Y001850D01*
X006260Y002310D01*
X006260Y003120D01*
X006740Y003600D01*
X008950Y003600D01*
X009350Y004000D01*
X009350Y004375D01*
X009275Y004450D01*
X009010Y004499D02*
X008517Y004499D01*
X008367Y004423D02*
X008595Y004195D01*
X008764Y004401D02*
X009010Y004401D01*
X009049Y004598D02*
X006225Y004598D01*
X006225Y004696D02*
X009176Y004696D01*
X009310Y004795D02*
X006225Y004795D01*
X006297Y004893D02*
X009337Y004893D01*
X009417Y004992D02*
X006330Y004992D01*
X006325Y005090D02*
X009809Y005090D01*
X009733Y004992D02*
X009907Y004992D01*
X009980Y004893D02*
X009813Y004893D01*
X009840Y004795D02*
X009980Y004795D01*
X009980Y004696D02*
X009829Y004696D01*
X009772Y004598D02*
X009980Y004598D01*
X009980Y004499D02*
X009747Y004499D01*
X009747Y004401D02*
X009980Y004401D01*
X009980Y004302D02*
X009747Y004302D01*
X009747Y004204D02*
X009980Y004204D01*
X009907Y004105D02*
X009747Y004105D01*
X009747Y004007D02*
X009875Y004007D01*
X009881Y003908D02*
X009747Y003908D01*
X009686Y003810D02*
X009931Y003810D01*
X010085Y003711D02*
X009587Y003711D01*
X009489Y003613D02*
X011175Y003613D01*
X011175Y003711D02*
X010195Y003711D01*
X010349Y003810D02*
X011175Y003810D01*
X011175Y003908D02*
X010399Y003908D01*
X010405Y004007D02*
X011175Y004007D01*
X011175Y004105D02*
X010373Y004105D01*
X010300Y004204D02*
X011175Y004204D01*
X011155Y004302D02*
X010300Y004302D01*
X010300Y004401D02*
X011057Y004401D01*
X010958Y004499D02*
X010300Y004499D01*
X010300Y004598D02*
X010860Y004598D01*
X010761Y004696D02*
X010300Y004696D01*
X010300Y004795D02*
X010663Y004795D01*
X010564Y004893D02*
X010300Y004893D01*
X010300Y004992D02*
X010466Y004992D01*
X010367Y005090D02*
X010261Y005090D01*
X010269Y005189D02*
X010163Y005189D01*
X010170Y005287D02*
X010064Y005287D01*
X010072Y005386D02*
X009966Y005386D01*
X009973Y005484D02*
X009867Y005484D01*
X009875Y005583D02*
X009769Y005583D01*
X009776Y005681D02*
X009670Y005681D01*
X009678Y005780D02*
X009572Y005780D01*
X009325Y005800D02*
X010140Y004985D01*
X010140Y003975D01*
X009587Y003937D02*
X009587Y004763D01*
X009575Y004775D01*
X009710Y005189D02*
X006276Y005189D01*
X006125Y005287D02*
X009612Y005287D01*
X009513Y005386D02*
X005687Y005386D01*
X005635Y005287D02*
X006005Y005287D01*
X005854Y005189D02*
X005786Y005189D01*
X005575Y005025D02*
X005575Y003925D01*
X005250Y003600D01*
X005250Y002400D01*
X004570Y001720D01*
X004565Y001650D01*
X004790Y001501D02*
X004790Y001500D01*
X004790Y001501D01*
X004735Y001446D02*
X004845Y001446D01*
X005015Y001650D02*
X004975Y001710D01*
X005450Y002185D01*
X005450Y003500D01*
X006065Y004115D01*
X006065Y005025D01*
X005785Y005484D02*
X009415Y005484D01*
X009316Y005583D02*
X005884Y005583D01*
X005628Y005780D02*
X003147Y005780D01*
X003056Y005681D02*
X005530Y005681D01*
X005431Y005583D02*
X003035Y005583D01*
X003035Y005484D02*
X005333Y005484D01*
X005234Y005386D02*
X005004Y005386D01*
X005040Y005350D02*
X004965Y005425D01*
X004868Y005465D01*
X004762Y005465D01*
X004665Y005425D01*
X004590Y005350D01*
X004550Y005253D01*
X004550Y005156D01*
X004457Y005060D01*
X004405Y005060D01*
X004340Y005125D01*
X004243Y005165D01*
X004137Y005165D01*
X004040Y005125D01*
X003965Y005050D01*
X003925Y004953D01*
X003925Y004847D01*
X003965Y004750D01*
X004040Y004675D01*
X004137Y004635D01*
X004243Y004635D01*
X004340Y004675D01*
X004405Y004740D01*
X004460Y004740D01*
X004461Y004739D01*
X004526Y004740D01*
X004591Y004740D01*
X004592Y004741D01*
X004594Y004741D01*
X004639Y004788D01*
X004685Y004834D01*
X004685Y004835D01*
X004781Y004935D01*
X004868Y004935D01*
X004965Y004975D01*
X005040Y005050D01*
X005080Y005147D01*
X005080Y005253D01*
X005040Y005350D01*
X005066Y005287D02*
X005136Y005287D01*
X005090Y005189D02*
X005080Y005189D01*
X005090Y005090D02*
X005056Y005090D01*
X005090Y004992D02*
X004981Y004992D01*
X005090Y004893D02*
X004741Y004893D01*
X004646Y004795D02*
X005090Y004795D01*
X005090Y004696D02*
X004687Y004696D01*
X004774Y004598D02*
X005090Y004598D01*
X005090Y004499D02*
X004805Y004499D01*
X004798Y004401D02*
X005090Y004401D01*
X005090Y004302D02*
X004747Y004302D01*
X004540Y004470D02*
X003430Y004470D01*
X002875Y005025D01*
X002875Y005875D01*
X002630Y005977D02*
X001350Y005977D01*
X001350Y006075D02*
X002700Y006075D01*
X002806Y006174D02*
X001350Y006174D01*
X001350Y006272D02*
X002904Y006272D01*
X003058Y006371D02*
X001350Y006371D01*
X001350Y005878D02*
X002610Y005878D01*
X002628Y005780D02*
X001350Y005780D01*
X001350Y005681D02*
X002694Y005681D01*
X002715Y005583D02*
X001350Y005583D01*
X001350Y005484D02*
X002715Y005484D01*
X002715Y005386D02*
X001350Y005386D01*
X001350Y005287D02*
X002715Y005287D01*
X002715Y005189D02*
X001350Y005189D01*
X001350Y005090D02*
X002715Y005090D01*
X002715Y004992D02*
X001350Y004992D01*
X001350Y004893D02*
X002781Y004893D01*
X002879Y004795D02*
X001350Y004795D01*
X001350Y004696D02*
X002978Y004696D01*
X003076Y004598D02*
X001350Y004598D01*
X001350Y004499D02*
X003175Y004499D01*
X003273Y004401D02*
X001350Y004401D01*
X001350Y004302D02*
X004333Y004302D01*
X004361Y004696D02*
X004393Y004696D01*
X004019Y004696D02*
X003430Y004696D01*
X003332Y004795D02*
X003947Y004795D01*
X003925Y004893D02*
X003233Y004893D01*
X003135Y004992D02*
X003941Y004992D01*
X004005Y005090D02*
X003036Y005090D01*
X003035Y005189D02*
X004550Y005189D01*
X004564Y005287D02*
X003035Y005287D01*
X003035Y005386D02*
X004626Y005386D01*
X004815Y005200D02*
X004525Y004900D01*
X004190Y004900D01*
X004375Y005090D02*
X004486Y005090D01*
X005250Y005175D02*
X005875Y005800D01*
X009325Y005800D01*
X008367Y004423D02*
X007848Y004423D01*
X007625Y004200D01*
X006480Y004200D01*
X005650Y003370D01*
X005650Y002000D01*
X005440Y001790D01*
X005440Y001650D01*
X005610Y001446D02*
X005695Y001446D01*
X005865Y001650D02*
X005870Y001695D01*
X005870Y003290D01*
X006580Y004000D01*
X007950Y004000D01*
X008120Y004120D01*
X007698Y004499D02*
X006225Y004499D01*
X006225Y004401D02*
X007599Y004401D01*
X006660Y003800D02*
X006069Y003209D01*
X006069Y001881D01*
X006315Y001675D01*
X006548Y001544D02*
X006800Y001544D01*
X006898Y001446D02*
X006453Y001446D01*
X006177Y001446D02*
X006035Y001446D01*
X005270Y001446D02*
X005185Y001446D01*
X004395Y001446D02*
X004305Y001446D01*
X004130Y001645D02*
X004130Y001770D01*
X005050Y002690D01*
X005050Y003715D01*
X005250Y003915D01*
X005250Y005175D01*
X006225Y004302D02*
X006356Y004302D01*
X006258Y004204D02*
X006225Y004204D01*
X006660Y003800D02*
X008700Y003800D01*
X009025Y004125D01*
X009587Y003937D02*
X009050Y003400D01*
X006875Y003400D01*
X006615Y003140D01*
X006615Y002675D01*
X006775Y002923D02*
X009939Y002923D01*
X010671Y002923D02*
X011175Y002923D01*
X011175Y002825D02*
X010715Y002825D01*
X010715Y002726D02*
X011108Y002726D01*
X011175Y003022D02*
X006775Y003022D01*
X006821Y003120D02*
X011175Y003120D01*
X011175Y003219D02*
X006920Y003219D01*
X005090Y004007D02*
X001350Y004007D01*
X001350Y004105D02*
X005090Y004105D01*
X005090Y004204D02*
X001350Y004204D01*
X001350Y003908D02*
X005017Y003908D01*
X004918Y003810D02*
X001350Y003810D01*
X001350Y003711D02*
X004890Y003711D01*
X004890Y003613D02*
X001350Y003613D01*
X001350Y003514D02*
X004890Y003514D01*
X004890Y003416D02*
X001350Y003416D01*
X001350Y003317D02*
X004890Y003317D01*
X004890Y003219D02*
X001350Y003219D01*
X001350Y003120D02*
X004890Y003120D01*
X004890Y003022D02*
X001350Y003022D01*
X001350Y002923D02*
X004890Y002923D01*
X004890Y002825D02*
X001350Y002825D01*
X001350Y002726D02*
X004860Y002726D01*
X004761Y002628D02*
X001350Y002628D01*
X001350Y002529D02*
X004663Y002529D01*
X004564Y002431D02*
X001350Y002431D01*
X001350Y002332D02*
X004466Y002332D01*
X004367Y002234D02*
X001350Y002234D01*
X001350Y002135D02*
X004269Y002135D01*
X004170Y002037D02*
X001350Y002037D01*
X001350Y001938D02*
X004072Y001938D01*
X003950Y001840D02*
X001350Y001840D01*
X001350Y001741D02*
X003883Y001741D01*
X003865Y001643D02*
X001350Y001643D01*
X001350Y001544D02*
X003885Y001544D01*
X003955Y001446D02*
X001350Y001446D01*
X009193Y003317D02*
X011175Y003317D01*
X011175Y003416D02*
X009292Y003416D01*
X009390Y003514D02*
X011175Y003514D01*
X013696Y001840D02*
X013700Y001840D01*
X013700Y001741D02*
X013598Y001741D01*
X013700Y001643D02*
X013465Y001643D01*
X013350Y006765D02*
X013700Y006765D01*
X013700Y006863D02*
X013550Y006863D01*
X013648Y006962D02*
X013700Y006962D01*
X013700Y008045D02*
X013612Y008045D01*
X013700Y008144D02*
X013499Y008144D01*
X013700Y008242D02*
X013261Y008242D01*
D15*
X010525Y002800D02*
X010085Y002800D01*
X010085Y002025D01*
X010525Y002025D01*
X010525Y002800D01*
X010525Y002735D02*
X010085Y002735D01*
X010085Y002577D02*
X010525Y002577D01*
X010525Y002418D02*
X010085Y002418D01*
X010085Y002260D02*
X010525Y002260D01*
X010525Y002101D02*
X010085Y002101D01*
D16*
X010300Y002400D02*
X010300Y002650D01*
X010300Y002400D02*
X011150Y002400D01*
X011435Y002685D01*
X011435Y004390D01*
X009714Y006111D01*
X003111Y006111D01*
X002875Y005875D01*
M02*
