G75*
G70*
%OFA0B0*%
%FSLAX24Y24*%
%IPPOS*%
%LPD*%
%AMOC8*
5,1,8,0,0,1.08239X$1,22.5*
%
%ADD10C,0.0080*%
%ADD11C,0.0050*%
%ADD12C,0.0030*%
%ADD13C,0.0100*%
%ADD14R,0.0276X0.0110*%
%ADD15R,0.0110X0.0276*%
%ADD16C,0.0075*%
D10*
X001149Y003561D02*
X001149Y006239D01*
X002212Y006239D02*
X002842Y006239D01*
X002842Y005766D01*
X002291Y005766D01*
X002291Y004034D01*
X002842Y004034D01*
X002842Y003561D01*
X002212Y003561D01*
X003158Y005646D02*
X003493Y005646D01*
X003768Y005646D02*
X004221Y005646D01*
X004221Y006354D01*
X003768Y006354D01*
X003493Y006354D02*
X003158Y006354D01*
X003079Y006276D01*
X003079Y005724D01*
X003158Y005646D01*
X003686Y006479D02*
X003686Y006932D01*
X003530Y007081D02*
X003530Y007419D01*
X003686Y007542D02*
X003686Y007207D01*
X003686Y007542D02*
X003764Y007621D01*
X004316Y007621D01*
X004394Y007542D01*
X004394Y007207D01*
X004394Y006932D02*
X004394Y006479D01*
X003686Y006479D01*
X002410Y007081D02*
X002410Y007419D01*
X002864Y007569D02*
X003076Y007569D01*
X005453Y005880D02*
X005545Y005758D01*
X005726Y005758D01*
X005631Y005880D02*
X005555Y005764D01*
X005545Y005758D02*
X005364Y005758D01*
X005914Y005758D02*
X006095Y005758D01*
X006003Y005880D01*
X006105Y005764D02*
X006181Y005880D01*
X006095Y005758D02*
X006276Y005758D01*
X006639Y007470D02*
X006715Y007586D01*
X006725Y007592D02*
X006817Y007470D01*
X006906Y007592D02*
X006725Y007592D01*
X006544Y007592D01*
D11*
X002726Y001390D02*
X002214Y001390D01*
X001486Y001902D02*
X001486Y002138D01*
X002214Y002650D02*
X002726Y002650D01*
X003454Y002138D02*
X003454Y001902D01*
X004442Y003759D02*
X004444Y003771D01*
X004449Y003782D01*
X004458Y003791D01*
X004469Y003796D01*
X004481Y003798D01*
X004493Y003796D01*
X004504Y003791D01*
X004513Y003782D01*
X004518Y003771D01*
X004520Y003759D01*
X004518Y003747D01*
X004513Y003736D01*
X004504Y003727D01*
X004493Y003722D01*
X004481Y003720D01*
X004469Y003722D01*
X004458Y003727D01*
X004449Y003736D01*
X004444Y003747D01*
X004442Y003759D01*
X007323Y002821D02*
X007323Y001719D01*
X008977Y001719D01*
X008977Y002821D01*
X007323Y002821D01*
X011630Y002340D02*
X011630Y007460D01*
X011635Y007485D02*
X017140Y007485D01*
X017140Y007450D02*
X017140Y002350D01*
X017140Y002315D02*
X011635Y002315D01*
X014090Y002900D02*
X016590Y003150D01*
X016590Y004400D01*
X014090Y004650D01*
X014090Y005150D02*
X016590Y005400D01*
X016590Y006650D01*
X014090Y006900D01*
X010005Y007536D02*
X010005Y007654D01*
X009493Y008087D02*
X009257Y008087D01*
X008745Y007654D02*
X008745Y007536D01*
X009257Y007103D02*
X009493Y007103D01*
X007652Y006484D02*
X007654Y006496D01*
X007659Y006507D01*
X007668Y006516D01*
X007679Y006521D01*
X007691Y006523D01*
X007703Y006521D01*
X007714Y006516D01*
X007723Y006507D01*
X007728Y006496D01*
X007730Y006484D01*
X007728Y006472D01*
X007723Y006461D01*
X007714Y006452D01*
X007703Y006447D01*
X007691Y006445D01*
X007679Y006447D01*
X007668Y006452D01*
X007659Y006461D01*
X007654Y006472D01*
X007652Y006484D01*
X004322Y007102D02*
X003758Y007102D01*
X003598Y006282D02*
X003598Y005718D01*
D12*
X003965Y005313D02*
X004070Y005313D01*
X004105Y005278D01*
X004105Y005208D01*
X004070Y005173D01*
X003965Y005173D01*
X004035Y005173D02*
X004105Y005103D01*
X004186Y005208D02*
X004326Y005208D01*
X004291Y005103D02*
X004291Y005313D01*
X004186Y005208D01*
X003965Y005103D02*
X003965Y005313D01*
X004368Y005685D02*
X004403Y005650D01*
X004473Y005650D01*
X004508Y005685D01*
X004589Y005650D02*
X004729Y005650D01*
X004659Y005650D02*
X004659Y005860D01*
X004589Y005790D01*
X004508Y005825D02*
X004473Y005860D01*
X004403Y005860D01*
X004368Y005825D01*
X004368Y005685D01*
X004875Y006060D02*
X004980Y006060D01*
X005015Y006095D01*
X005015Y006235D01*
X004980Y006270D01*
X004875Y006270D01*
X004875Y006060D01*
X005096Y006095D02*
X005131Y006060D01*
X005201Y006060D01*
X005236Y006095D01*
X005236Y006130D01*
X005201Y006165D01*
X005166Y006165D01*
X005201Y006165D02*
X005236Y006200D01*
X005236Y006235D01*
X005201Y006270D01*
X005131Y006270D01*
X005096Y006235D01*
X004916Y006450D02*
X004916Y006660D01*
X004811Y006555D01*
X004951Y006555D01*
X004730Y006485D02*
X004695Y006450D01*
X004625Y006450D01*
X004590Y006485D01*
X004590Y006625D01*
X004625Y006660D01*
X004695Y006660D01*
X004730Y006625D01*
X004935Y007015D02*
X004935Y007225D01*
X005040Y007225D01*
X005075Y007190D01*
X005075Y007120D01*
X005040Y007085D01*
X004935Y007085D01*
X005005Y007085D02*
X005075Y007015D01*
X005156Y007015D02*
X005296Y007015D01*
X005226Y007015D02*
X005226Y007225D01*
X005156Y007155D01*
X006350Y006820D02*
X006350Y006610D01*
X006350Y006680D02*
X006455Y006680D01*
X006490Y006715D01*
X006490Y006785D01*
X006455Y006820D01*
X006350Y006820D01*
X006420Y006680D02*
X006490Y006610D01*
X006571Y006610D02*
X006711Y006750D01*
X006711Y006785D01*
X006676Y006820D01*
X006606Y006820D01*
X006571Y006785D01*
X006571Y006610D02*
X006711Y006610D01*
X006736Y006275D02*
X006666Y006275D01*
X006631Y006240D01*
X006550Y006240D02*
X006550Y006100D01*
X006515Y006065D01*
X006410Y006065D01*
X006410Y006275D01*
X006515Y006275D01*
X006550Y006240D01*
X006736Y006275D02*
X006771Y006240D01*
X006771Y006205D01*
X006631Y006065D01*
X006771Y006065D01*
X007157Y006881D02*
X007227Y006881D01*
X007262Y006916D01*
X007262Y007091D01*
X007343Y007056D02*
X007378Y007091D01*
X007448Y007091D01*
X007483Y007056D01*
X007483Y007021D01*
X007448Y006986D01*
X007483Y006951D01*
X007483Y006916D01*
X007448Y006881D01*
X007378Y006881D01*
X007343Y006916D01*
X007413Y006986D02*
X007448Y006986D01*
X007157Y006881D02*
X007122Y006916D01*
X007122Y007091D01*
X007975Y007550D02*
X008010Y007515D01*
X008080Y007515D01*
X008115Y007550D01*
X008196Y007515D02*
X008336Y007515D01*
X008266Y007515D02*
X008266Y007725D01*
X008196Y007655D01*
X008115Y007690D02*
X008080Y007725D01*
X008010Y007725D01*
X007975Y007690D01*
X007975Y007550D01*
X007831Y007705D02*
X007761Y007705D01*
X007726Y007740D01*
X007726Y007810D02*
X007796Y007845D01*
X007831Y007845D01*
X007866Y007810D01*
X007866Y007740D01*
X007831Y007705D01*
X007726Y007810D02*
X007726Y007915D01*
X007866Y007915D01*
X007645Y007880D02*
X007645Y007810D01*
X007610Y007775D01*
X007505Y007775D01*
X007505Y007705D02*
X007505Y007915D01*
X007610Y007915D01*
X007645Y007880D01*
X007575Y007775D02*
X007645Y007705D01*
X008417Y007690D02*
X008417Y007550D01*
X008557Y007690D01*
X008557Y007550D01*
X008522Y007515D01*
X008452Y007515D01*
X008417Y007550D01*
X008417Y007690D02*
X008452Y007725D01*
X008522Y007725D01*
X008557Y007690D01*
X006936Y008190D02*
X006796Y008190D01*
X006866Y008190D02*
X006866Y008400D01*
X006796Y008330D01*
X006715Y008365D02*
X006680Y008400D01*
X006575Y008400D01*
X006575Y008190D01*
X006680Y008190D01*
X006715Y008225D01*
X006715Y008365D01*
X003949Y007940D02*
X003949Y007905D01*
X003809Y007765D01*
X003949Y007765D01*
X003728Y007800D02*
X003693Y007765D01*
X003623Y007765D01*
X003588Y007800D01*
X003588Y007940D01*
X003623Y007975D01*
X003693Y007975D01*
X003728Y007940D01*
X003809Y007940D02*
X003844Y007975D01*
X003914Y007975D01*
X003949Y007940D01*
X002356Y007790D02*
X002216Y007790D01*
X002321Y007895D01*
X002321Y007685D01*
X002135Y007720D02*
X002135Y007895D01*
X001995Y007895D02*
X001995Y007720D01*
X002030Y007685D01*
X002100Y007685D01*
X002135Y007720D01*
X001776Y007257D02*
X001776Y007047D01*
X001706Y007047D02*
X001846Y007047D01*
X001590Y007082D02*
X001590Y007257D01*
X001555Y007257D02*
X001625Y007257D01*
X001706Y007187D02*
X001776Y007257D01*
X001590Y007082D02*
X001555Y007047D01*
X001520Y007047D01*
X001485Y007082D01*
X004405Y004963D02*
X004510Y004963D01*
X004545Y004928D01*
X004545Y004858D01*
X004510Y004823D01*
X004405Y004823D01*
X004475Y004823D02*
X004545Y004753D01*
X004626Y004788D02*
X004661Y004753D01*
X004731Y004753D01*
X004766Y004788D01*
X004766Y004823D01*
X004731Y004858D01*
X004696Y004858D01*
X004731Y004858D02*
X004766Y004893D01*
X004766Y004928D01*
X004731Y004963D01*
X004661Y004963D01*
X004626Y004928D01*
X004405Y004963D02*
X004405Y004753D01*
X004316Y004510D02*
X004176Y004510D01*
X004176Y004405D01*
X004246Y004440D01*
X004281Y004440D01*
X004316Y004405D01*
X004316Y004335D01*
X004281Y004300D01*
X004211Y004300D01*
X004176Y004335D01*
X004095Y004335D02*
X004060Y004300D01*
X003990Y004300D01*
X003955Y004335D01*
X003955Y004475D01*
X003990Y004510D01*
X004060Y004510D01*
X004095Y004475D01*
X003341Y003745D02*
X003201Y003745D01*
X003120Y003710D02*
X003085Y003745D01*
X003015Y003745D01*
X002980Y003710D01*
X002980Y003570D01*
X003015Y003535D01*
X003085Y003535D01*
X003120Y003570D01*
X003201Y003570D02*
X003201Y003535D01*
X003201Y003570D02*
X003341Y003710D01*
X003341Y003745D01*
X003610Y003590D02*
X003610Y003450D01*
X003645Y003415D01*
X003715Y003415D01*
X003750Y003450D01*
X003831Y003450D02*
X003866Y003415D01*
X003936Y003415D01*
X003971Y003450D01*
X003971Y003485D01*
X003936Y003520D01*
X003866Y003520D01*
X003831Y003555D01*
X003831Y003590D01*
X003866Y003625D01*
X003936Y003625D01*
X003971Y003590D01*
X003971Y003555D01*
X003936Y003520D01*
X003866Y003520D02*
X003831Y003485D01*
X003831Y003450D01*
X003750Y003590D02*
X003715Y003625D01*
X003645Y003625D01*
X003610Y003590D01*
X003181Y003380D02*
X003111Y003345D01*
X003041Y003275D01*
X003146Y003275D01*
X003181Y003240D01*
X003181Y003205D01*
X003146Y003170D01*
X003076Y003170D01*
X003041Y003205D01*
X003041Y003275D01*
X002960Y003205D02*
X002925Y003170D01*
X002855Y003170D01*
X002820Y003205D01*
X002820Y003345D01*
X002855Y003380D01*
X002925Y003380D01*
X002960Y003345D01*
X003711Y002195D02*
X003711Y002160D01*
X003781Y002090D01*
X003781Y001985D01*
X003781Y002090D02*
X003851Y002160D01*
X003851Y002195D01*
X003932Y002125D02*
X004002Y002195D01*
X004002Y001985D01*
X003932Y001985D02*
X004072Y001985D01*
X006566Y002219D02*
X006601Y002184D01*
X006671Y002184D01*
X006706Y002219D01*
X006706Y002394D01*
X006787Y002324D02*
X006857Y002394D01*
X006857Y002184D01*
X006787Y002184D02*
X006927Y002184D01*
X006566Y002219D02*
X006566Y002394D01*
X008423Y001430D02*
X008458Y001395D01*
X008493Y001395D01*
X008528Y001430D01*
X008528Y001605D01*
X008493Y001605D02*
X008563Y001605D01*
X008644Y001570D02*
X008679Y001605D01*
X008749Y001605D01*
X008784Y001570D01*
X008784Y001535D01*
X008749Y001500D01*
X008784Y001465D01*
X008784Y001430D01*
X008749Y001395D01*
X008679Y001395D01*
X008644Y001430D01*
X008714Y001500D02*
X008749Y001500D01*
X009490Y001495D02*
X009560Y001495D01*
X009490Y001390D02*
X009490Y001600D01*
X009630Y001600D01*
X009711Y001530D02*
X009781Y001600D01*
X009781Y001390D01*
X009711Y001390D02*
X009851Y001390D01*
X011790Y002050D02*
X011825Y002015D01*
X011860Y002015D01*
X011895Y002050D01*
X011895Y002225D01*
X011860Y002225D02*
X011930Y002225D01*
X012011Y002190D02*
X012046Y002225D01*
X012116Y002225D01*
X012151Y002190D01*
X012151Y002155D01*
X012011Y002015D01*
X012151Y002015D01*
X009382Y003485D02*
X009242Y003485D01*
X009312Y003485D02*
X009312Y003695D01*
X009242Y003625D01*
X009161Y003485D02*
X009021Y003485D01*
X009091Y003485D02*
X009091Y003695D01*
X009021Y003625D01*
X008940Y003660D02*
X008940Y003590D01*
X008905Y003555D01*
X008800Y003555D01*
X008800Y003485D02*
X008800Y003695D01*
X008905Y003695D01*
X008940Y003660D01*
X008870Y003555D02*
X008940Y003485D01*
X007866Y003895D02*
X007866Y004035D01*
X007831Y004070D01*
X007761Y004070D01*
X007726Y004035D01*
X007726Y004000D01*
X007761Y003965D01*
X007866Y003965D01*
X007866Y003895D02*
X007831Y003860D01*
X007761Y003860D01*
X007726Y003895D01*
X007645Y003860D02*
X007575Y003930D01*
X007610Y003930D02*
X007505Y003930D01*
X007505Y003860D02*
X007505Y004070D01*
X007610Y004070D01*
X007645Y004035D01*
X007645Y003965D01*
X007610Y003930D01*
X007206Y003825D02*
X007136Y003790D01*
X007066Y003720D01*
X007171Y003720D01*
X007206Y003685D01*
X007206Y003650D01*
X007171Y003615D01*
X007101Y003615D01*
X007066Y003650D01*
X007066Y003720D01*
X006985Y003720D02*
X006950Y003685D01*
X006845Y003685D01*
X006845Y003615D02*
X006845Y003825D01*
X006950Y003825D01*
X006985Y003790D01*
X006985Y003720D01*
X006915Y003685D02*
X006985Y003615D01*
X006556Y004250D02*
X006486Y004250D01*
X006451Y004285D01*
X006370Y004285D02*
X006335Y004250D01*
X006265Y004250D01*
X006230Y004285D01*
X006230Y004425D01*
X006265Y004460D01*
X006335Y004460D01*
X006370Y004425D01*
X006451Y004425D02*
X006486Y004460D01*
X006556Y004460D01*
X006591Y004425D01*
X006591Y004390D01*
X006556Y004355D01*
X006591Y004320D01*
X006591Y004285D01*
X006556Y004250D01*
X006556Y004355D02*
X006521Y004355D01*
X009820Y004690D02*
X009820Y004900D01*
X009925Y004900D01*
X009960Y004865D01*
X009960Y004795D01*
X009925Y004760D01*
X009820Y004760D01*
X009890Y004760D02*
X009960Y004690D01*
X010041Y004725D02*
X010041Y004760D01*
X010076Y004795D01*
X010146Y004795D01*
X010181Y004760D01*
X010181Y004725D01*
X010146Y004690D01*
X010076Y004690D01*
X010041Y004725D01*
X010076Y004795D02*
X010041Y004830D01*
X010041Y004865D01*
X010076Y004900D01*
X010146Y004900D01*
X010181Y004865D01*
X010181Y004830D01*
X010146Y004795D01*
X010046Y005015D02*
X010046Y005050D01*
X010186Y005190D01*
X010186Y005225D01*
X010046Y005225D01*
X009965Y005190D02*
X009965Y005120D01*
X009930Y005085D01*
X009825Y005085D01*
X009825Y005015D02*
X009825Y005225D01*
X009930Y005225D01*
X009965Y005190D01*
X009895Y005085D02*
X009965Y005015D01*
X009930Y005525D02*
X009965Y005560D01*
X009930Y005525D02*
X009860Y005525D01*
X009825Y005560D01*
X009825Y005700D01*
X009860Y005735D01*
X009930Y005735D01*
X009965Y005700D01*
X010046Y005665D02*
X010116Y005735D01*
X010116Y005525D01*
X010046Y005525D02*
X010186Y005525D01*
X010267Y005525D02*
X010407Y005665D01*
X010407Y005700D01*
X010372Y005735D01*
X010302Y005735D01*
X010267Y005700D01*
X010267Y005525D02*
X010407Y005525D01*
X010401Y006585D02*
X010331Y006585D01*
X010296Y006620D01*
X010331Y006690D02*
X010436Y006690D01*
X010436Y006620D02*
X010436Y006760D01*
X010401Y006795D01*
X010331Y006795D01*
X010296Y006760D01*
X010296Y006725D01*
X010331Y006690D01*
X010401Y006585D02*
X010436Y006620D01*
X010215Y006620D02*
X010180Y006585D01*
X010110Y006585D01*
X010075Y006620D01*
X010075Y006760D01*
X010110Y006795D01*
X010180Y006795D01*
X010215Y006760D01*
X010301Y007180D02*
X010301Y007285D01*
X010371Y007355D01*
X010371Y007390D01*
X010452Y007355D02*
X010487Y007390D01*
X010557Y007390D01*
X010592Y007355D01*
X010592Y007320D01*
X010452Y007180D01*
X010592Y007180D01*
X010301Y007285D02*
X010231Y007355D01*
X010231Y007390D01*
X011035Y007860D02*
X011070Y007825D01*
X011140Y007825D01*
X011175Y007860D01*
X011256Y007825D02*
X011396Y007825D01*
X011326Y007825D02*
X011326Y008035D01*
X011256Y007965D01*
X011175Y008000D02*
X011140Y008035D01*
X011070Y008035D01*
X011035Y008000D01*
X011035Y007860D01*
X011477Y007825D02*
X011617Y007825D01*
X011547Y007825D02*
X011547Y008035D01*
X011477Y007965D01*
X010972Y004070D02*
X011007Y004035D01*
X010867Y003895D01*
X010902Y003860D01*
X010972Y003860D01*
X011007Y003895D01*
X011007Y004035D01*
X010972Y004070D02*
X010902Y004070D01*
X010867Y004035D01*
X010867Y003895D01*
X010786Y003860D02*
X010646Y003860D01*
X010716Y003860D02*
X010716Y004070D01*
X010646Y004000D01*
X010565Y003965D02*
X010530Y003930D01*
X010425Y003930D01*
X010425Y003860D02*
X010425Y004070D01*
X010530Y004070D01*
X010565Y004035D01*
X010565Y003965D01*
X010495Y003930D02*
X010565Y003860D01*
D13*
X010130Y005961D02*
X010130Y006059D01*
X010130Y006281D02*
X010130Y006379D01*
X008230Y007196D02*
X008230Y007294D01*
X010520Y007911D02*
X010520Y008009D01*
X004669Y007140D02*
X004571Y007140D01*
X003550Y004499D02*
X003550Y004401D01*
X002519Y003110D02*
X002421Y003110D01*
X003150Y002979D02*
X003150Y002881D01*
X003771Y002990D02*
X003869Y002990D01*
X005765Y004361D02*
X005765Y004459D01*
D14*
X006550Y003460D03*
X008500Y003625D03*
X006095Y006900D03*
X005545Y006900D03*
X007250Y007525D03*
D15*
X003550Y005198D03*
X003550Y004858D03*
X007440Y004350D03*
X010250Y004350D03*
X010675Y004730D03*
X010675Y005070D03*
D16*
X009384Y004948D02*
X009384Y004791D01*
X009227Y004791D01*
X007573Y004791D02*
X007416Y004791D01*
X007416Y004948D01*
X006174Y004034D02*
X006017Y004034D01*
X006174Y004034D02*
X006174Y003877D01*
X004363Y004034D02*
X004206Y003877D01*
X004206Y002223D02*
X004206Y002066D01*
X004363Y002066D01*
X006017Y002066D02*
X006174Y002066D01*
X006174Y002223D01*
X007416Y006602D02*
X007573Y006759D01*
X009227Y006759D02*
X009384Y006759D01*
X009384Y006602D01*
M02*
