%
M48
M72
T01C0.0130
T02C0.0256
T03C0.0910
%
T01
X4130Y1645
X4565Y1650
X5015Y1650
X5440Y1650
X5865Y1650
X6315Y1675
X6720Y1850
X6615Y2675
X7025Y3075
X8490Y3020
X10300Y2650
X10300Y2150
X10140Y3975
X10850Y4350
X9575Y4775
X9275Y4450
X9025Y4125
X8595Y4195
X8120Y4120
X6855Y4510
X6065Y5025
X5575Y5025
X4815Y5200
X4190Y4900
X4540Y4470
X3880Y4070
X3430Y3320
X2875Y5875
X5475Y7515
X6050Y7515
X7350Y8150
X9755Y6710
X6935Y6540
X4620Y7750
X4220Y7850
T02
X7650Y2520
X8150Y2520
X8650Y2520
X8650Y2020
X8150Y2020
X7650Y2020
T03
X13090Y2315
X13090Y7485
M30
